<?xml version="1.0" encoding="UTF-8" standalone="no"?>
<!DOCTYPE svg PUBLIC "-//W3C//DTD SVG 1.1//EN"
 "http://www.w3.org/Graphics/SVG/1.1/DTD/svg11.dtd">
<!-- Generated by graphviz version 2.47.3 (20210619.1520)
 -->
<!-- Title: dependencies Pages: 1 -->
<svg width="2151pt" height="247pt"
 viewBox="0.00 0.00 2151.00 246.80" xmlns="http://www.w3.org/2000/svg" xmlns:xlink="http://www.w3.org/1999/xlink">
<g id="graph0" class="graph" transform="scale(1 1) rotate(0) translate(4 242.8)">
<title>dependencies</title>
<polygon fill="white" stroke="transparent" points="-4,4 -4,-242.8 2147,-242.8 2147,4 -4,4"/>
<text text-anchor="middle" x="1071.5" y="-8.2" font-family="sans-serif" font-size="14.00">dependencies</text>
<g id="clust1" class="cluster">
<title>cluster_PaginasModule</title>
<polygon fill="none" stroke="black" stroke-dasharray="1,5" points="8,-32.8 8,-230.8 2135,-230.8 2135,-32.8 8,-32.8"/>
</g>
<g id="clust2" class="cluster">
<title>cluster_PaginasModule_declarations</title>
<polygon fill="none" stroke="black" points="188,-40.8 188,-92.8 2127,-92.8 2127,-40.8 188,-40.8"/>
</g>
<g id="clust15" class="cluster">
<title>cluster_PaginasModule_exports</title>
<polygon fill="none" stroke="black" points="129,-170.8 129,-222.8 1989,-222.8 1989,-170.8 129,-170.8"/>
</g>
<g id="clust14" class="cluster">
<title>cluster_PaginasModule_imports</title>
<polygon fill="none" stroke="black" points="16,-40.8 16,-92.8 180,-92.8 180,-40.8 16,-40.8"/>
</g>
<!-- BusquedaPipe -->
<g id="node1" class="node">
<title>BusquedaPipe</title>
<polygon fill="#ffffb3" stroke="black" points="2119.1,-84.8 2022.9,-84.8 2022.9,-48.8 2119.1,-48.8 2119.1,-84.8"/>
<text text-anchor="middle" x="2071" y="-62.6" font-family="Times,serif" font-size="14.00">BusquedaPipe</text>
</g>
<!-- PaginasModule -->
<g id="node12" class="node">
<title>PaginasModule</title>
<polygon fill="#8dd3c7" stroke="black" points="1073.6,-149.8 1070.6,-153.8 1049.6,-153.8 1046.6,-149.8 970.4,-149.8 970.4,-113.8 1073.6,-113.8 1073.6,-149.8"/>
<text text-anchor="middle" x="1022" y="-127.6" font-family="Times,serif" font-size="14.00">PaginasModule</text>
</g>
<!-- BusquedaPipe&#45;&gt;PaginasModule -->
<g id="edge1" class="edge">
<title>BusquedaPipe&#45;&gt;PaginasModule</title>
<path fill="none" stroke="black" d="M2071,-84.91C2071,-104.14 2071,-131.8 2071,-131.8 2071,-131.8 1083.66,-131.8 1083.66,-131.8"/>
<polygon fill="black" stroke="black" points="1083.66,-128.3 1073.66,-131.8 1083.66,-135.3 1083.66,-128.3"/>
</g>
<!-- CambioContrasenaComponent -->
<g id="node2" class="node">
<title>CambioContrasenaComponent</title>
<polygon fill="#ffffb3" stroke="black" points="2005.14,-84.8 1816.86,-84.8 1816.86,-48.8 2005.14,-48.8 2005.14,-84.8"/>
<text text-anchor="middle" x="1911" y="-62.6" font-family="Times,serif" font-size="14.00">CambioContrasenaComponent</text>
</g>
<!-- CambioContrasenaComponent&#45;&gt;PaginasModule -->
<g id="edge2" class="edge">
<title>CambioContrasenaComponent&#45;&gt;PaginasModule</title>
<path fill="none" stroke="black" d="M1898.88,-85.07C1898.88,-103.36 1898.88,-128.8 1898.88,-128.8 1898.88,-128.8 1083.58,-128.8 1083.58,-128.8"/>
<polygon fill="black" stroke="black" points="1083.58,-125.3 1073.58,-128.8 1083.58,-132.3 1083.58,-125.3"/>
</g>
<!-- EscannerQRComponent -->
<g id="node3" class="node">
<title>EscannerQRComponent</title>
<polygon fill="#ffffb3" stroke="black" points="1799.08,-84.8 1646.92,-84.8 1646.92,-48.8 1799.08,-48.8 1799.08,-84.8"/>
<text text-anchor="middle" x="1723" y="-62.6" font-family="Times,serif" font-size="14.00">EscannerQRComponent</text>
</g>
<!-- EscannerQRComponent&#45;&gt;PaginasModule -->
<g id="edge3" class="edge">
<title>EscannerQRComponent&#45;&gt;PaginasModule</title>
<path fill="none" stroke="black" d="M1708.88,-84.83C1708.88,-101.86 1708.88,-124.8 1708.88,-124.8 1708.88,-124.8 1083.63,-124.8 1083.63,-124.8"/>
<polygon fill="black" stroke="black" points="1083.63,-121.3 1073.63,-124.8 1083.63,-128.3 1083.63,-121.3"/>
</g>
<!-- PersonalEliminadoComponent -->
<g id="node4" class="node">
<title>PersonalEliminadoComponent</title>
<polygon fill="#ffffb3" stroke="black" points="1628.87,-84.8 1441.13,-84.8 1441.13,-48.8 1628.87,-48.8 1628.87,-84.8"/>
<text text-anchor="middle" x="1535" y="-62.6" font-family="Times,serif" font-size="14.00">PersonalEliminadoComponent</text>
</g>
<!-- PersonalEliminadoComponent&#45;&gt;PaginasModule -->
<g id="edge4" class="edge">
<title>PersonalEliminadoComponent&#45;&gt;PaginasModule</title>
<path fill="none" stroke="black" d="M1519.38,-84.81C1519.38,-100.85 1519.38,-121.8 1519.38,-121.8 1519.38,-121.8 1083.82,-121.8 1083.82,-121.8"/>
<polygon fill="black" stroke="black" points="1083.82,-118.3 1073.82,-121.8 1083.82,-125.3 1083.82,-118.3"/>
</g>
<!-- RegistroPersonalComponent -->
<g id="node5" class="node">
<title>RegistroPersonalComponent</title>
<polygon fill="#ffffb3" stroke="black" points="1423.48,-84.8 1246.52,-84.8 1246.52,-48.8 1423.48,-48.8 1423.48,-84.8"/>
<text text-anchor="middle" x="1335" y="-62.6" font-family="Times,serif" font-size="14.00">RegistroPersonalComponent</text>
</g>
<!-- RegistroPersonalComponent&#45;&gt;PaginasModule -->
<g id="edge5" class="edge">
<title>RegistroPersonalComponent&#45;&gt;PaginasModule</title>
<path fill="none" stroke="black" d="M1317.38,-84.92C1317.38,-99.58 1317.38,-117.8 1317.38,-117.8 1317.38,-117.8 1083.79,-117.8 1083.79,-117.8"/>
<polygon fill="black" stroke="black" points="1083.79,-114.3 1073.79,-117.8 1083.79,-121.3 1083.79,-114.3"/>
</g>
<!-- RegistroRolComponent -->
<g id="node6" class="node">
<title>RegistroRolComponent</title>
<polygon fill="#ffffb3" stroke="black" points="1228.5,-84.8 1079.5,-84.8 1079.5,-48.8 1228.5,-48.8 1228.5,-84.8"/>
<text text-anchor="middle" x="1154" y="-62.6" font-family="Times,serif" font-size="14.00">RegistroRolComponent</text>
</g>
<!-- RegistroRolComponent&#45;&gt;PaginasModule -->
<g id="edge6" class="edge">
<title>RegistroRolComponent&#45;&gt;PaginasModule</title>
<path fill="none" stroke="black" d="M1079.21,-66.8C1072.14,-66.8 1067.55,-66.8 1067.55,-66.8 1067.55,-66.8 1067.55,-103.69 1067.55,-103.69"/>
<polygon fill="black" stroke="black" points="1064.05,-103.69 1067.55,-113.69 1071.05,-103.69 1064.05,-103.69"/>
</g>
<!-- RegistroUsuarioComponent -->
<g id="node7" class="node">
<title>RegistroUsuarioComponent</title>
<polygon fill="#ffffb3" stroke="black" points="1061.59,-84.8 888.41,-84.8 888.41,-48.8 1061.59,-48.8 1061.59,-84.8"/>
<text text-anchor="middle" x="975" y="-62.6" font-family="Times,serif" font-size="14.00">RegistroUsuarioComponent</text>
</g>
<!-- RegistroUsuarioComponent&#45;&gt;PaginasModule -->
<g id="edge7" class="edge">
<title>RegistroUsuarioComponent&#45;&gt;PaginasModule</title>
<path fill="none" stroke="black" d="M1016,-84.91C1016,-84.91 1016,-103.79 1016,-103.79"/>
<polygon fill="black" stroke="black" points="1012.5,-103.79 1016,-113.79 1019.5,-103.79 1012.5,-103.79"/>
</g>
<!-- UsuariosEliminadosComponent -->
<g id="node8" class="node">
<title>UsuariosEliminadosComponent</title>
<polygon fill="#ffffb3" stroke="black" points="870.37,-84.8 675.63,-84.8 675.63,-48.8 870.37,-48.8 870.37,-84.8"/>
<text text-anchor="middle" x="773" y="-62.6" font-family="Times,serif" font-size="14.00">UsuariosEliminadosComponent</text>
</g>
<!-- UsuariosEliminadosComponent&#45;&gt;PaginasModule -->
<g id="edge8" class="edge">
<title>UsuariosEliminadosComponent&#45;&gt;PaginasModule</title>
<path fill="none" stroke="black" d="M856.57,-84.92C856.57,-99.58 856.57,-117.8 856.57,-117.8 856.57,-117.8 960.11,-117.8 960.11,-117.8"/>
<polygon fill="black" stroke="black" points="960.11,-121.3 970.11,-117.8 960.11,-114.3 960.11,-121.3"/>
</g>
<!-- VerPersonalComponent -->
<g id="node9" class="node">
<title>VerPersonalComponent</title>
<polygon fill="#ffffb3" stroke="black" points="657.02,-84.8 506.98,-84.8 506.98,-48.8 657.02,-48.8 657.02,-84.8"/>
<text text-anchor="middle" x="582" y="-62.6" font-family="Times,serif" font-size="14.00">VerPersonalComponent</text>
</g>
<!-- VerPersonalComponent&#45;&gt;PaginasModule -->
<g id="edge9" class="edge">
<title>VerPersonalComponent&#45;&gt;PaginasModule</title>
<path fill="none" stroke="black" d="M642.04,-84.81C642.04,-100.85 642.04,-121.8 642.04,-121.8 642.04,-121.8 960.36,-121.8 960.36,-121.8"/>
<polygon fill="black" stroke="black" points="960.36,-125.3 970.36,-121.8 960.36,-118.3 960.36,-125.3"/>
</g>
<!-- VerRolComponent -->
<g id="node10" class="node">
<title>VerRolComponent</title>
<polygon fill="#ffffb3" stroke="black" points="488.04,-84.8 365.96,-84.8 365.96,-48.8 488.04,-48.8 488.04,-84.8"/>
<text text-anchor="middle" x="427" y="-62.6" font-family="Times,serif" font-size="14.00">VerRolComponent</text>
</g>
<!-- VerRolComponent&#45;&gt;PaginasModule -->
<g id="edge10" class="edge">
<title>VerRolComponent&#45;&gt;PaginasModule</title>
<path fill="none" stroke="black" d="M471.63,-84.83C471.63,-101.86 471.63,-124.8 471.63,-124.8 471.63,-124.8 960.22,-124.8 960.22,-124.8"/>
<polygon fill="black" stroke="black" points="960.22,-128.3 970.22,-124.8 960.22,-121.3 960.22,-128.3"/>
</g>
<!-- VerUsuariosComponent -->
<g id="node11" class="node">
<title>VerUsuariosComponent</title>
<polygon fill="#ffffb3" stroke="black" points="348.08,-84.8 195.92,-84.8 195.92,-48.8 348.08,-48.8 348.08,-84.8"/>
<text text-anchor="middle" x="272" y="-62.6" font-family="Times,serif" font-size="14.00">VerUsuariosComponent</text>
</g>
<!-- VerUsuariosComponent&#45;&gt;PaginasModule -->
<g id="edge11" class="edge">
<title>VerUsuariosComponent&#45;&gt;PaginasModule</title>
<path fill="none" stroke="black" d="M329.51,-85.07C329.51,-103.36 329.51,-128.8 329.51,-128.8 329.51,-128.8 960.23,-128.8 960.23,-128.8"/>
<polygon fill="black" stroke="black" points="960.23,-132.3 970.23,-128.8 960.23,-125.3 960.23,-132.3"/>
</g>
<!-- CambioContrasenaComponent  -->
<g id="node14" class="node">
<title>CambioContrasenaComponent </title>
<polygon fill="#fb8072" stroke="black" points="1981.14,-214.8 1788.86,-214.8 1788.86,-178.8 1981.14,-178.8 1981.14,-214.8"/>
<text text-anchor="middle" x="1885" y="-192.6" font-family="Times,serif" font-size="14.00">CambioContrasenaComponent </text>
</g>
<!-- PaginasModule&#45;&gt;CambioContrasenaComponent  -->
<g id="edge13" class="edge">
<title>PaginasModule&#45;&gt;CambioContrasenaComponent </title>
<path fill="none" stroke="black" stroke-dasharray="5,2" d="M1073.55,-135.8C1246.3,-135.8 1793.98,-135.8 1793.98,-135.8 1793.98,-135.8 1793.98,-168.5 1793.98,-168.5"/>
<polygon fill="black" stroke="black" points="1790.48,-168.5 1793.98,-178.5 1797.48,-168.5 1790.48,-168.5"/>
</g>
<!-- EscannerQRComponent  -->
<g id="node15" class="node">
<title>EscannerQRComponent </title>
<polygon fill="#fb8072" stroke="black" points="1770.58,-214.8 1615.42,-214.8 1615.42,-178.8 1770.58,-178.8 1770.58,-214.8"/>
<text text-anchor="middle" x="1693" y="-192.6" font-family="Times,serif" font-size="14.00">EscannerQRComponent </text>
</g>
<!-- PaginasModule&#45;&gt;EscannerQRComponent  -->
<g id="edge14" class="edge">
<title>PaginasModule&#45;&gt;EscannerQRComponent </title>
<path fill="none" stroke="black" stroke-dasharray="5,2" d="M1073.68,-139.8C1219.24,-139.8 1622.07,-139.8 1622.07,-139.8 1622.07,-139.8 1622.07,-168.76 1622.07,-168.76"/>
<polygon fill="black" stroke="black" points="1618.57,-168.76 1622.07,-178.76 1625.57,-168.76 1618.57,-168.76"/>
</g>
<!-- PersonalEliminadoComponent  -->
<g id="node16" class="node">
<title>PersonalEliminadoComponent </title>
<polygon fill="#fb8072" stroke="black" points="1597.87,-214.8 1406.13,-214.8 1406.13,-178.8 1597.87,-178.8 1597.87,-214.8"/>
<text text-anchor="middle" x="1502" y="-192.6" font-family="Times,serif" font-size="14.00">PersonalEliminadoComponent </text>
</g>
<!-- PaginasModule&#45;&gt;PersonalEliminadoComponent  -->
<g id="edge15" class="edge">
<title>PaginasModule&#45;&gt;PersonalEliminadoComponent </title>
<path fill="none" stroke="black" stroke-dasharray="5,2" d="M1073.77,-142.8C1180.46,-142.8 1414.9,-142.8 1414.9,-142.8 1414.9,-142.8 1414.9,-168.52 1414.9,-168.52"/>
<polygon fill="black" stroke="black" points="1411.4,-168.52 1414.9,-178.52 1418.4,-168.52 1411.4,-168.52"/>
</g>
<!-- RegistroPersonalComponent  -->
<g id="node17" class="node">
<title>RegistroPersonalComponent </title>
<polygon fill="#fb8072" stroke="black" points="1388.48,-214.8 1207.52,-214.8 1207.52,-178.8 1388.48,-178.8 1388.48,-214.8"/>
<text text-anchor="middle" x="1298" y="-192.6" font-family="Times,serif" font-size="14.00">RegistroPersonalComponent </text>
</g>
<!-- PaginasModule&#45;&gt;RegistroPersonalComponent  -->
<g id="edge16" class="edge">
<title>PaginasModule&#45;&gt;RegistroPersonalComponent </title>
<path fill="none" stroke="black" stroke-dasharray="5,2" d="M1073.79,-146.8C1131.89,-146.8 1218.13,-146.8 1218.13,-146.8 1218.13,-146.8 1218.13,-168.75 1218.13,-168.75"/>
<polygon fill="black" stroke="black" points="1214.63,-168.75 1218.13,-178.75 1221.63,-168.75 1214.63,-168.75"/>
</g>
<!-- RegistroRolComponent  -->
<g id="node18" class="node">
<title>RegistroRolComponent </title>
<polygon fill="#fb8072" stroke="black" points="1190.5,-214.8 1037.5,-214.8 1037.5,-178.8 1190.5,-178.8 1190.5,-214.8"/>
<text text-anchor="middle" x="1114" y="-192.6" font-family="Times,serif" font-size="14.00">RegistroRolComponent </text>
</g>
<!-- PaginasModule&#45;&gt;RegistroRolComponent  -->
<g id="edge17" class="edge">
<title>PaginasModule&#45;&gt;RegistroRolComponent </title>
<path fill="none" stroke="black" stroke-dasharray="5,2" d="M1055.65,-149.91C1055.65,-149.91 1055.65,-168.79 1055.65,-168.79"/>
<polygon fill="black" stroke="black" points="1052.15,-168.79 1055.65,-178.79 1059.15,-168.79 1052.15,-168.79"/>
</g>
<!-- RegistroUsuarioComponent  -->
<g id="node19" class="node">
<title>RegistroUsuarioComponent </title>
<polygon fill="#fb8072" stroke="black" points="1019.09,-214.8 842.91,-214.8 842.91,-178.8 1019.09,-178.8 1019.09,-214.8"/>
<text text-anchor="middle" x="931" y="-192.6" font-family="Times,serif" font-size="14.00">RegistroUsuarioComponent </text>
</g>
<!-- PaginasModule&#45;&gt;RegistroUsuarioComponent  -->
<g id="edge18" class="edge">
<title>PaginasModule&#45;&gt;RegistroUsuarioComponent </title>
<path fill="none" stroke="black" stroke-dasharray="5,2" d="M994.87,-149.91C994.87,-149.91 994.87,-168.79 994.87,-168.79"/>
<polygon fill="black" stroke="black" points="991.37,-168.79 994.87,-178.79 998.37,-168.79 991.37,-168.79"/>
</g>
<!-- UsuariosEliminadosComponent  -->
<g id="node20" class="node">
<title>UsuariosEliminadosComponent </title>
<polygon fill="#fb8072" stroke="black" points="825.37,-214.8 626.63,-214.8 626.63,-178.8 825.37,-178.8 825.37,-214.8"/>
<text text-anchor="middle" x="726" y="-192.6" font-family="Times,serif" font-size="14.00">UsuariosEliminadosComponent </text>
</g>
<!-- PaginasModule&#45;&gt;UsuariosEliminadosComponent  -->
<g id="edge19" class="edge">
<title>PaginasModule&#45;&gt;UsuariosEliminadosComponent </title>
<path fill="none" stroke="black" stroke-dasharray="5,2" d="M970.27,-146.8C891.46,-146.8 750.38,-146.8 750.38,-146.8 750.38,-146.8 750.38,-168.75 750.38,-168.75"/>
<polygon fill="black" stroke="black" points="746.88,-168.75 750.38,-178.75 753.88,-168.75 746.88,-168.75"/>
</g>
<!-- VerPersonalComponent  -->
<g id="node21" class="node">
<title>VerPersonalComponent </title>
<polygon fill="#fb8072" stroke="black" points="609.02,-214.8 454.98,-214.8 454.98,-178.8 609.02,-178.8 609.02,-214.8"/>
<text text-anchor="middle" x="532" y="-192.6" font-family="Times,serif" font-size="14.00">VerPersonalComponent </text>
</g>
<!-- PaginasModule&#45;&gt;VerPersonalComponent  -->
<g id="edge20" class="edge">
<title>PaginasModule&#45;&gt;VerPersonalComponent </title>
<path fill="none" stroke="black" stroke-dasharray="5,2" d="M970.11,-142.8C849,-142.8 557.88,-142.8 557.88,-142.8 557.88,-142.8 557.88,-168.52 557.88,-168.52"/>
<polygon fill="black" stroke="black" points="554.38,-168.52 557.88,-178.52 561.38,-168.52 554.38,-168.52"/>
</g>
<!-- VerRolComponent  -->
<g id="node22" class="node">
<title>VerRolComponent </title>
<polygon fill="#fb8072" stroke="black" points="437.04,-214.8 310.96,-214.8 310.96,-178.8 437.04,-178.8 437.04,-214.8"/>
<text text-anchor="middle" x="374" y="-192.6" font-family="Times,serif" font-size="14.00">VerRolComponent </text>
</g>
<!-- PaginasModule&#45;&gt;VerRolComponent  -->
<g id="edge21" class="edge">
<title>PaginasModule&#45;&gt;VerRolComponent </title>
<path fill="none" stroke="black" stroke-dasharray="5,2" d="M970.42,-139.8C821.49,-139.8 401.38,-139.8 401.38,-139.8 401.38,-139.8 401.38,-168.76 401.38,-168.76"/>
<polygon fill="black" stroke="black" points="397.88,-168.76 401.38,-178.76 404.88,-168.76 397.88,-168.76"/>
</g>
<!-- VerUsuariosComponent  -->
<g id="node23" class="node">
<title>VerUsuariosComponent </title>
<polygon fill="#fb8072" stroke="black" points="292.58,-214.8 137.42,-214.8 137.42,-178.8 292.58,-178.8 292.58,-214.8"/>
<text text-anchor="middle" x="215" y="-192.6" font-family="Times,serif" font-size="14.00">VerUsuariosComponent </text>
</g>
<!-- PaginasModule&#45;&gt;VerUsuariosComponent  -->
<g id="edge22" class="edge">
<title>PaginasModule&#45;&gt;VerUsuariosComponent </title>
<path fill="none" stroke="black" stroke-dasharray="5,2" d="M970.38,-135.8C796.7,-135.8 244.38,-135.8 244.38,-135.8 244.38,-135.8 244.38,-168.5 244.38,-168.5"/>
<polygon fill="black" stroke="black" points="240.88,-168.5 244.38,-178.5 247.88,-168.5 240.88,-168.5"/>
</g>
<!-- PaginasRoutingModule -->
<g id="node13" class="node">
<title>PaginasRoutingModule</title>
<polygon fill="#8dd3c7" stroke="black" points="172.21,-84.8 169.21,-88.8 148.21,-88.8 145.21,-84.8 23.79,-84.8 23.79,-48.8 172.21,-48.8 172.21,-84.8"/>
<text text-anchor="middle" x="98" y="-62.6" font-family="Times,serif" font-size="14.00">PaginasRoutingModule</text>
</g>
<!-- PaginasRoutingModule&#45;&gt;PaginasModule -->
<g id="edge12" class="edge">
<title>PaginasRoutingModule&#45;&gt;PaginasModule</title>
<path fill="none" stroke="black" d="M154.66,-84.91C154.66,-104.14 154.66,-131.8 154.66,-131.8 154.66,-131.8 960.34,-131.8 960.34,-131.8"/>
<polygon fill="black" stroke="black" points="960.34,-135.3 970.34,-131.8 960.34,-128.3 960.34,-135.3"/>
</g>
</g>
</svg>
