<?xml version="1.0" encoding="UTF-8" standalone="no"?>
<!DOCTYPE svg PUBLIC "-//W3C//DTD SVG 1.1//EN"
 "http://www.w3.org/Graphics/SVG/1.1/DTD/svg11.dtd">
<!-- Generated by graphviz version 2.47.3 (20210619.1520)
 -->
<!-- Title: dependencies Pages: 1 -->
<svg width="949pt" height="174pt"
 viewBox="0.00 0.00 949.00 173.80" xmlns="http://www.w3.org/2000/svg" xmlns:xlink="http://www.w3.org/1999/xlink">
<g id="graph0" class="graph" transform="scale(1 1) rotate(0) translate(4 169.8)">
<title>dependencies</title>
<polygon fill="white" stroke="transparent" points="-4,4 -4,-169.8 945,-169.8 945,4 -4,4"/>
<text text-anchor="middle" x="470.5" y="-8.2" font-family="sans-serif" font-size="14.00">dependencies</text>
<g id="clust1" class="cluster">
<title>cluster_AppModule</title>
<polygon fill="none" stroke="black" stroke-dasharray="1,5" points="8,-32.8 8,-157.8 933,-157.8 933,-32.8 8,-32.8"/>
</g>
<g id="clust2" class="cluster">
<title>cluster_AppModule_declarations</title>
<polygon fill="none" stroke="black" points="168,-40.8 168,-92.8 925,-92.8 925,-40.8 168,-40.8"/>
</g>
<g id="clust7" class="cluster">
<title>cluster_AppModule_imports</title>
<polygon fill="none" stroke="black" points="16,-40.8 16,-92.8 160,-92.8 160,-40.8 16,-40.8"/>
</g>
<!-- ContrasenaEmailComponent -->
<g id="node1" class="node">
<title>ContrasenaEmailComponent</title>
<polygon fill="#ffffb3" stroke="black" points="916.75,-84.8 739.25,-84.8 739.25,-48.8 916.75,-48.8 916.75,-84.8"/>
<text text-anchor="middle" x="828" y="-62.6" font-family="Times,serif" font-size="14.00">ContrasenaEmailComponent</text>
</g>
<!-- AppModule -->
<g id="node5" class="node">
<title>AppModule</title>
<polygon fill="#8dd3c7" stroke="black" points="554.66,-149.8 551.66,-153.8 530.66,-153.8 527.66,-149.8 471.34,-149.8 471.34,-113.8 554.66,-113.8 554.66,-149.8"/>
<text text-anchor="middle" x="513" y="-127.6" font-family="Times,serif" font-size="14.00">AppModule</text>
</g>
<!-- ContrasenaEmailComponent&#45;&gt;AppModule -->
<g id="edge1" class="edge">
<title>ContrasenaEmailComponent&#45;&gt;AppModule</title>
<path fill="none" stroke="black" d="M828,-85.08C828,-106.12 828,-137.8 828,-137.8 828,-137.8 564.83,-137.8 564.83,-137.8"/>
<polygon fill="black" stroke="black" points="564.83,-134.3 554.83,-137.8 564.83,-141.3 564.83,-134.3"/>
</g>
<!-- LoginComponent -->
<g id="node2" class="node">
<title>LoginComponent</title>
<polygon fill="#ffffb3" stroke="black" points="721.28,-84.8 606.72,-84.8 606.72,-48.8 721.28,-48.8 721.28,-84.8"/>
<text text-anchor="middle" x="664" y="-62.6" font-family="Times,serif" font-size="14.00">LoginComponent</text>
</g>
<!-- LoginComponent&#45;&gt;AppModule -->
<g id="edge2" class="edge">
<title>LoginComponent&#45;&gt;AppModule</title>
<path fill="none" stroke="black" d="M664,-84.82C664,-102.17 664,-125.8 664,-125.8 664,-125.8 564.66,-125.8 564.66,-125.8"/>
<polygon fill="black" stroke="black" points="564.66,-122.3 554.66,-125.8 564.66,-129.3 564.66,-122.3"/>
</g>
<!-- PanelAdminComponent -->
<g id="node3" class="node">
<title>PanelAdminComponent</title>
<polygon fill="#ffffb3" stroke="black" points="588.82,-84.8 437.18,-84.8 437.18,-48.8 588.82,-48.8 588.82,-84.8"/>
<text text-anchor="middle" x="513" y="-62.6" font-family="Times,serif" font-size="14.00">PanelAdminComponent</text>
</g>
<!-- PanelAdminComponent&#45;&gt;AppModule -->
<g id="edge3" class="edge">
<title>PanelAdminComponent&#45;&gt;AppModule</title>
<path fill="none" stroke="black" d="M513,-84.91C513,-84.91 513,-103.79 513,-103.79"/>
<polygon fill="black" stroke="black" points="509.5,-103.79 513,-113.79 516.5,-103.79 509.5,-103.79"/>
</g>
<!-- RestablecerContrasenaEmailComponent -->
<g id="node4" class="node">
<title>RestablecerContrasenaEmailComponent</title>
<polygon fill="#ffffb3" stroke="black" points="419.54,-84.8 176.46,-84.8 176.46,-48.8 419.54,-48.8 419.54,-84.8"/>
<text text-anchor="middle" x="298" y="-62.6" font-family="Times,serif" font-size="14.00">RestablecerContrasenaEmailComponent</text>
</g>
<!-- RestablecerContrasenaEmailComponent&#45;&gt;AppModule -->
<g id="edge4" class="edge">
<title>RestablecerContrasenaEmailComponent&#45;&gt;AppModule</title>
<path fill="none" stroke="black" d="M298,-84.82C298,-102.17 298,-125.8 298,-125.8 298,-125.8 461.29,-125.8 461.29,-125.8"/>
<polygon fill="black" stroke="black" points="461.29,-129.3 471.29,-125.8 461.29,-122.3 461.29,-129.3"/>
</g>
<!-- AppRoutingModule -->
<g id="node6" class="node">
<title>AppRoutingModule</title>
<polygon fill="#8dd3c7" stroke="black" points="152.27,-84.8 149.27,-88.8 128.27,-88.8 125.27,-84.8 23.73,-84.8 23.73,-48.8 152.27,-48.8 152.27,-84.8"/>
<text text-anchor="middle" x="88" y="-62.6" font-family="Times,serif" font-size="14.00">AppRoutingModule</text>
</g>
<!-- AppRoutingModule&#45;&gt;AppModule -->
<g id="edge5" class="edge">
<title>AppRoutingModule&#45;&gt;AppModule</title>
<path fill="none" stroke="black" d="M88,-85.08C88,-106.12 88,-137.8 88,-137.8 88,-137.8 461.09,-137.8 461.09,-137.8"/>
<polygon fill="black" stroke="black" points="461.09,-141.3 471.09,-137.8 461.09,-134.3 461.09,-141.3"/>
</g>
</g>
</svg>
