<?xml version="1.0" encoding="UTF-8" standalone="no"?>
<!DOCTYPE svg PUBLIC "-//W3C//DTD SVG 1.1//EN"
 "http://www.w3.org/Graphics/SVG/1.1/DTD/svg11.dtd">
<!-- Generated by graphviz version 2.47.3 (20210619.1520)
 -->
<!-- Title: dependencies Pages: 1 -->
<svg width="1800pt" height="247pt"
 viewBox="0.00 0.00 1800.00 246.80" xmlns="http://www.w3.org/2000/svg" xmlns:xlink="http://www.w3.org/1999/xlink">
<g id="graph0" class="graph" transform="scale(1 1) rotate(0) translate(4 242.8)">
<title>dependencies</title>
<polygon fill="white" stroke="transparent" points="-4,4 -4,-242.8 1796,-242.8 1796,4 -4,4"/>
<text text-anchor="middle" x="896" y="-8.2" font-family="sans-serif" font-size="14.00">dependencies</text>
<g id="clust1" class="cluster">
<title>cluster_ComponentesModule</title>
<polygon fill="none" stroke="black" stroke-dasharray="1,5" points="8,-32.8 8,-230.8 1784,-230.8 1784,-32.8 8,-32.8"/>
</g>
<g id="clust2" class="cluster">
<title>cluster_ComponentesModule_declarations</title>
<polygon fill="none" stroke="black" points="38,-40.8 38,-92.8 1762,-92.8 1762,-40.8 38,-40.8"/>
</g>
<g id="clust14" class="cluster">
<title>cluster_ComponentesModule_exports</title>
<polygon fill="none" stroke="black" points="16,-170.8 16,-222.8 1776,-222.8 1776,-170.8 16,-170.8"/>
</g>
<!-- ActualizarPersonalComponent -->
<g id="node1" class="node">
<title>ActualizarPersonalComponent</title>
<polygon fill="#ffffb3" stroke="black" points="1753.84,-84.8 1566.16,-84.8 1566.16,-48.8 1753.84,-48.8 1753.84,-84.8"/>
<text text-anchor="middle" x="1660" y="-62.6" font-family="Times,serif" font-size="14.00">ActualizarPersonalComponent</text>
</g>
<!-- ComponentesModule -->
<g id="node11" class="node">
<title>ComponentesModule</title>
<polygon fill="#8dd3c7" stroke="black" points="816.04,-149.8 813.04,-153.8 792.04,-153.8 789.04,-149.8 679.96,-149.8 679.96,-113.8 816.04,-113.8 816.04,-149.8"/>
<text text-anchor="middle" x="748" y="-127.6" font-family="Times,serif" font-size="14.00">ComponentesModule</text>
</g>
<!-- ActualizarPersonalComponent&#45;&gt;ComponentesModule -->
<g id="edge1" class="edge">
<title>ActualizarPersonalComponent&#45;&gt;ComponentesModule</title>
<path fill="none" stroke="black" d="M1571.21,-84.97C1571.21,-103.89 1571.21,-130.8 1571.21,-130.8 1571.21,-130.8 826.07,-130.8 826.07,-130.8"/>
<polygon fill="black" stroke="black" points="826.07,-127.3 816.07,-130.8 826.07,-134.3 826.07,-127.3"/>
</g>
<!-- ActualizarRolComponent -->
<g id="node2" class="node">
<title>ActualizarRolComponent</title>
<polygon fill="#ffffb3" stroke="black" points="1547.86,-84.8 1388.14,-84.8 1388.14,-48.8 1547.86,-48.8 1547.86,-84.8"/>
<text text-anchor="middle" x="1468" y="-62.6" font-family="Times,serif" font-size="14.00">ActualizarRolComponent</text>
</g>
<!-- ActualizarRolComponent&#45;&gt;ComponentesModule -->
<g id="edge2" class="edge">
<title>ActualizarRolComponent&#45;&gt;ComponentesModule</title>
<path fill="none" stroke="black" d="M1391.7,-85.1C1391.7,-103.07 1391.7,-127.8 1391.7,-127.8 1391.7,-127.8 826.28,-127.8 826.28,-127.8"/>
<polygon fill="black" stroke="black" points="826.28,-124.3 816.28,-127.8 826.28,-131.3 826.28,-124.3"/>
</g>
<!-- ActualizarUsuarioComponent -->
<g id="node3" class="node">
<title>ActualizarUsuarioComponent</title>
<polygon fill="#ffffb3" stroke="black" points="1369.95,-84.8 1186.05,-84.8 1186.05,-48.8 1369.95,-48.8 1369.95,-84.8"/>
<text text-anchor="middle" x="1278" y="-62.6" font-family="Times,serif" font-size="14.00">ActualizarUsuarioComponent</text>
</g>
<!-- ActualizarUsuarioComponent&#45;&gt;ComponentesModule -->
<g id="edge3" class="edge">
<title>ActualizarUsuarioComponent&#45;&gt;ComponentesModule</title>
<path fill="none" stroke="black" d="M1310.07,-84.84C1310.07,-101.53 1310.07,-123.8 1310.07,-123.8 1310.07,-123.8 826.08,-123.8 826.08,-123.8"/>
<polygon fill="black" stroke="black" points="826.08,-120.3 816.08,-123.8 826.08,-127.3 826.08,-120.3"/>
</g>
<!-- BuscadorComponent -->
<g id="node4" class="node">
<title>BuscadorComponent</title>
<polygon fill="#ffffb3" stroke="black" points="1168.2,-84.8 1033.8,-84.8 1033.8,-48.8 1168.2,-48.8 1168.2,-84.8"/>
<text text-anchor="middle" x="1101" y="-62.6" font-family="Times,serif" font-size="14.00">BuscadorComponent</text>
</g>
<!-- BuscadorComponent&#45;&gt;ComponentesModule -->
<g id="edge4" class="edge">
<title>BuscadorComponent&#45;&gt;ComponentesModule</title>
<path fill="none" stroke="black" d="M1123.45,-85.08C1123.45,-100.75 1123.45,-120.8 1123.45,-120.8 1123.45,-120.8 826.43,-120.8 826.43,-120.8"/>
<polygon fill="black" stroke="black" points="826.43,-117.3 816.43,-120.8 826.43,-124.3 826.43,-117.3"/>
</g>
<!-- ErroresBackendComponent -->
<g id="node5" class="node">
<title>ErroresBackendComponent</title>
<polygon fill="#ffffb3" stroke="black" points="1015.51,-84.8 844.49,-84.8 844.49,-48.8 1015.51,-48.8 1015.51,-84.8"/>
<text text-anchor="middle" x="930" y="-62.6" font-family="Times,serif" font-size="14.00">ErroresBackendComponent</text>
</g>
<!-- ErroresBackendComponent&#45;&gt;ComponentesModule -->
<g id="edge5" class="edge">
<title>ErroresBackendComponent&#45;&gt;ComponentesModule</title>
<path fill="none" stroke="black" d="M901.42,-84.92C901.42,-99.58 901.42,-117.8 901.42,-117.8 901.42,-117.8 826.18,-117.8 826.18,-117.8"/>
<polygon fill="black" stroke="black" points="826.18,-114.3 816.18,-117.8 826.18,-121.3 826.18,-114.3"/>
</g>
<!-- ErroresFrontendComponent -->
<g id="node6" class="node">
<title>ErroresFrontendComponent</title>
<polygon fill="#ffffb3" stroke="black" points="826.57,-84.8 653.43,-84.8 653.43,-48.8 826.57,-48.8 826.57,-84.8"/>
<text text-anchor="middle" x="740" y="-62.6" font-family="Times,serif" font-size="14.00">ErroresFrontendComponent</text>
</g>
<!-- ErroresFrontendComponent&#45;&gt;ComponentesModule -->
<g id="edge6" class="edge">
<title>ErroresFrontendComponent&#45;&gt;ComponentesModule</title>
<path fill="none" stroke="black" d="M748,-84.91C748,-84.91 748,-103.79 748,-103.79"/>
<polygon fill="black" stroke="black" points="744.5,-103.79 748,-113.79 751.5,-103.79 744.5,-103.79"/>
</g>
<!-- ExitoComponent -->
<g id="node7" class="node">
<title>ExitoComponent</title>
<polygon fill="#ffffb3" stroke="black" points="635.67,-84.8 524.33,-84.8 524.33,-48.8 635.67,-48.8 635.67,-84.8"/>
<text text-anchor="middle" x="580" y="-62.6" font-family="Times,serif" font-size="14.00">ExitoComponent</text>
</g>
<!-- ExitoComponent&#45;&gt;ComponentesModule -->
<g id="edge7" class="edge">
<title>ExitoComponent&#45;&gt;ComponentesModule</title>
<path fill="none" stroke="black" d="M632.21,-84.92C632.21,-99.58 632.21,-117.8 632.21,-117.8 632.21,-117.8 669.64,-117.8 669.64,-117.8"/>
<polygon fill="black" stroke="black" points="669.64,-121.3 679.64,-117.8 669.64,-114.3 669.64,-121.3"/>
</g>
<!-- ModalComponent -->
<g id="node8" class="node">
<title>ModalComponent</title>
<polygon fill="#ffffb3" stroke="black" points="505.88,-84.8 388.12,-84.8 388.12,-48.8 505.88,-48.8 505.88,-84.8"/>
<text text-anchor="middle" x="447" y="-62.6" font-family="Times,serif" font-size="14.00">ModalComponent</text>
</g>
<!-- ModalComponent&#45;&gt;ComponentesModule -->
<g id="edge8" class="edge">
<title>ModalComponent&#45;&gt;ComponentesModule</title>
<path fill="none" stroke="black" d="M500.82,-84.81C500.82,-100.85 500.82,-121.8 500.82,-121.8 500.82,-121.8 669.8,-121.8 669.8,-121.8"/>
<polygon fill="black" stroke="black" points="669.8,-125.3 679.8,-121.8 669.8,-118.3 669.8,-125.3"/>
</g>
<!-- NoEncontradoComponent -->
<g id="node9" class="node">
<title>NoEncontradoComponent</title>
<polygon fill="#ffffb3" stroke="black" points="370.47,-84.8 207.53,-84.8 207.53,-48.8 370.47,-48.8 370.47,-84.8"/>
<text text-anchor="middle" x="289" y="-62.6" font-family="Times,serif" font-size="14.00">NoEncontradoComponent</text>
</g>
<!-- NoEncontradoComponent&#45;&gt;ComponentesModule -->
<g id="edge9" class="edge">
<title>NoEncontradoComponent&#45;&gt;ComponentesModule</title>
<path fill="none" stroke="black" d="M363.36,-84.82C363.36,-102.17 363.36,-125.8 363.36,-125.8 363.36,-125.8 669.68,-125.8 669.68,-125.8"/>
<polygon fill="black" stroke="black" points="669.68,-129.3 679.68,-125.8 669.68,-122.3 669.68,-129.3"/>
</g>
<!-- PaginacionComponent -->
<g id="node10" class="node">
<title>PaginacionComponent</title>
<polygon fill="#ffffb3" stroke="black" points="189.54,-84.8 46.46,-84.8 46.46,-48.8 189.54,-48.8 189.54,-84.8"/>
<text text-anchor="middle" x="118" y="-62.6" font-family="Times,serif" font-size="14.00">PaginacionComponent</text>
</g>
<!-- PaginacionComponent&#45;&gt;ComponentesModule -->
<g id="edge10" class="edge">
<title>PaginacionComponent&#45;&gt;ComponentesModule</title>
<path fill="none" stroke="black" d="M180.64,-85.02C180.64,-103.63 180.64,-129.8 180.64,-129.8 180.64,-129.8 669.85,-129.8 669.85,-129.8"/>
<polygon fill="black" stroke="black" points="669.85,-133.3 679.85,-129.8 669.85,-126.3 669.85,-133.3"/>
</g>
<!-- ActualizarPersonalComponent  -->
<g id="node12" class="node">
<title>ActualizarPersonalComponent </title>
<polygon fill="#fb8072" stroke="black" points="1767.84,-214.8 1576.16,-214.8 1576.16,-178.8 1767.84,-178.8 1767.84,-214.8"/>
<text text-anchor="middle" x="1672" y="-192.6" font-family="Times,serif" font-size="14.00">ActualizarPersonalComponent </text>
</g>
<!-- ComponentesModule&#45;&gt;ActualizarPersonalComponent  -->
<g id="edge11" class="edge">
<title>ComponentesModule&#45;&gt;ActualizarPersonalComponent </title>
<path fill="none" stroke="black" stroke-dasharray="5,2" d="M816.18,-133.8C1028.73,-133.8 1665.12,-133.8 1665.12,-133.8 1665.12,-133.8 1665.12,-168.58 1665.12,-168.58"/>
<polygon fill="black" stroke="black" points="1661.63,-168.58 1665.12,-178.58 1668.63,-168.58 1661.63,-168.58"/>
</g>
<!-- ActualizarRolComponent  -->
<g id="node13" class="node">
<title>ActualizarRolComponent </title>
<polygon fill="#fb8072" stroke="black" points="1558.86,-214.8 1395.14,-214.8 1395.14,-178.8 1558.86,-178.8 1558.86,-214.8"/>
<text text-anchor="middle" x="1477" y="-192.6" font-family="Times,serif" font-size="14.00">ActualizarRolComponent </text>
</g>
<!-- ComponentesModule&#45;&gt;ActualizarRolComponent  -->
<g id="edge12" class="edge">
<title>ComponentesModule&#45;&gt;ActualizarRolComponent </title>
<path fill="none" stroke="black" stroke-dasharray="5,2" d="M816.08,-136.8C996.21,-136.8 1471.62,-136.8 1471.62,-136.8 1471.62,-136.8 1471.62,-168.8 1471.62,-168.8"/>
<polygon fill="black" stroke="black" points="1468.13,-168.8 1471.62,-178.8 1475.13,-168.8 1468.13,-168.8"/>
</g>
<!-- ActualizarUsuarioComponent  -->
<g id="node14" class="node">
<title>ActualizarUsuarioComponent </title>
<polygon fill="#fb8072" stroke="black" points="1377.95,-214.8 1190.05,-214.8 1190.05,-178.8 1377.95,-178.8 1377.95,-214.8"/>
<text text-anchor="middle" x="1284" y="-192.6" font-family="Times,serif" font-size="14.00">ActualizarUsuarioComponent </text>
</g>
<!-- ComponentesModule&#45;&gt;ActualizarUsuarioComponent  -->
<g id="edge13" class="edge">
<title>ComponentesModule&#45;&gt;ActualizarUsuarioComponent </title>
<path fill="none" stroke="black" stroke-dasharray="5,2" d="M816.25,-140.8C953.55,-140.8 1250.18,-140.8 1250.18,-140.8 1250.18,-140.8 1250.18,-168.77 1250.18,-168.77"/>
<polygon fill="black" stroke="black" points="1246.68,-168.77 1250.18,-178.77 1253.68,-168.77 1246.68,-168.77"/>
</g>
<!-- BuscadorComponent  -->
<g id="node15" class="node">
<title>BuscadorComponent </title>
<polygon fill="#fb8072" stroke="black" points="1171.7,-214.8 1034.3,-214.8 1034.3,-178.8 1171.7,-178.8 1171.7,-214.8"/>
<text text-anchor="middle" x="1103" y="-192.6" font-family="Times,serif" font-size="14.00">BuscadorComponent </text>
</g>
<!-- ComponentesModule&#45;&gt;BuscadorComponent  -->
<g id="edge14" class="edge">
<title>ComponentesModule&#45;&gt;BuscadorComponent </title>
<path fill="none" stroke="black" stroke-dasharray="5,2" d="M816.14,-143.8C912.98,-143.8 1078.8,-143.8 1078.8,-143.8 1078.8,-143.8 1078.8,-168.56 1078.8,-168.56"/>
<polygon fill="black" stroke="black" points="1075.3,-168.56 1078.8,-178.56 1082.3,-168.56 1075.3,-168.56"/>
</g>
<!-- ErroresBackendComponent  -->
<g id="node16" class="node">
<title>ErroresBackendComponent </title>
<polygon fill="#fb8072" stroke="black" points="1016.51,-214.8 841.49,-214.8 841.49,-178.8 1016.51,-178.8 1016.51,-214.8"/>
<text text-anchor="middle" x="929" y="-192.6" font-family="Times,serif" font-size="14.00">ErroresBackendComponent </text>
</g>
<!-- ComponentesModule&#45;&gt;ErroresBackendComponent  -->
<g id="edge15" class="edge">
<title>ComponentesModule&#45;&gt;ErroresBackendComponent </title>
<path fill="none" stroke="black" stroke-dasharray="5,2" d="M816.08,-146.8C877.61,-146.8 958.58,-146.8 958.58,-146.8 958.58,-146.8 958.58,-168.75 958.58,-168.75"/>
<polygon fill="black" stroke="black" points="955.08,-168.75 958.58,-178.75 962.08,-168.75 955.08,-168.75"/>
</g>
<!-- ErroresFrontendComponent  -->
<g id="node17" class="node">
<title>ErroresFrontendComponent </title>
<polygon fill="#fb8072" stroke="black" points="823.07,-214.8 646.93,-214.8 646.93,-178.8 823.07,-178.8 823.07,-214.8"/>
<text text-anchor="middle" x="735" y="-192.6" font-family="Times,serif" font-size="14.00">ErroresFrontendComponent </text>
</g>
<!-- ComponentesModule&#45;&gt;ErroresFrontendComponent  -->
<g id="edge16" class="edge">
<title>ComponentesModule&#45;&gt;ErroresFrontendComponent </title>
<path fill="none" stroke="black" stroke-dasharray="5,2" d="M748,-149.91C748,-149.91 748,-168.79 748,-168.79"/>
<polygon fill="black" stroke="black" points="744.5,-168.79 748,-178.79 751.5,-168.79 744.5,-168.79"/>
</g>
<!-- ExitoComponent  -->
<g id="node18" class="node">
<title>ExitoComponent </title>
<polygon fill="#fb8072" stroke="black" points="628.67,-214.8 513.33,-214.8 513.33,-178.8 628.67,-178.8 628.67,-214.8"/>
<text text-anchor="middle" x="571" y="-192.6" font-family="Times,serif" font-size="14.00">ExitoComponent </text>
</g>
<!-- ComponentesModule&#45;&gt;ExitoComponent  -->
<g id="edge17" class="edge">
<title>ComponentesModule&#45;&gt;ExitoComponent </title>
<path fill="none" stroke="black" stroke-dasharray="5,2" d="M679.68,-145.8C631.82,-145.8 576.38,-145.8 576.38,-145.8 576.38,-145.8 576.38,-168.68 576.38,-168.68"/>
<polygon fill="black" stroke="black" points="572.88,-168.68 576.38,-178.68 579.88,-168.68 572.88,-168.68"/>
</g>
<!-- ModalComponent  -->
<g id="node19" class="node">
<title>ModalComponent </title>
<polygon fill="#fb8072" stroke="black" points="495.88,-214.8 374.12,-214.8 374.12,-178.8 495.88,-178.8 495.88,-214.8"/>
<text text-anchor="middle" x="435" y="-192.6" font-family="Times,serif" font-size="14.00">ModalComponent </text>
</g>
<!-- ComponentesModule&#45;&gt;ModalComponent  -->
<g id="edge18" class="edge">
<title>ComponentesModule&#45;&gt;ModalComponent </title>
<path fill="none" stroke="black" stroke-dasharray="5,2" d="M679.68,-141.8C589.46,-141.8 441.88,-141.8 441.88,-141.8 441.88,-141.8 441.88,-168.79 441.88,-168.79"/>
<polygon fill="black" stroke="black" points="438.38,-168.79 441.88,-178.79 445.38,-168.79 438.38,-168.79"/>
</g>
<!-- NoEncontradoComponent  -->
<g id="node20" class="node">
<title>NoEncontradoComponent </title>
<polygon fill="#fb8072" stroke="black" points="356.47,-214.8 189.53,-214.8 189.53,-178.8 356.47,-178.8 356.47,-214.8"/>
<text text-anchor="middle" x="273" y="-192.6" font-family="Times,serif" font-size="14.00">NoEncontradoComponent </text>
</g>
<!-- ComponentesModule&#45;&gt;NoEncontradoComponent  -->
<g id="edge19" class="edge">
<title>ComponentesModule&#45;&gt;NoEncontradoComponent </title>
<path fill="none" stroke="black" stroke-dasharray="5,2" d="M679.72,-137.8C550.25,-137.8 281.88,-137.8 281.88,-137.8 281.88,-137.8 281.88,-168.78 281.88,-168.78"/>
<polygon fill="black" stroke="black" points="278.38,-168.78 281.88,-178.78 285.38,-168.78 278.38,-168.78"/>
</g>
<!-- PaginacionComponent  -->
<g id="node21" class="node">
<title>PaginacionComponent </title>
<polygon fill="#fb8072" stroke="black" points="171.54,-214.8 24.46,-214.8 24.46,-178.8 171.54,-178.8 171.54,-214.8"/>
<text text-anchor="middle" x="98" y="-192.6" font-family="Times,serif" font-size="14.00">PaginacionComponent </text>
</g>
<!-- ComponentesModule&#45;&gt;PaginacionComponent  -->
<g id="edge20" class="edge">
<title>ComponentesModule&#45;&gt;PaginacionComponent </title>
<path fill="none" stroke="black" stroke-dasharray="5,2" d="M679.91,-133.8C515.22,-133.8 108.88,-133.8 108.88,-133.8 108.88,-133.8 108.88,-168.58 108.88,-168.58"/>
<polygon fill="black" stroke="black" points="105.38,-168.58 108.88,-178.58 112.38,-168.58 105.38,-168.58"/>
</g>
</g>
</svg>
