<?xml version="1.0" encoding="UTF-8" standalone="no"?>
<!DOCTYPE svg PUBLIC "-//W3C//DTD SVG 1.1//EN"
 "http://www.w3.org/Graphics/SVG/1.1/DTD/svg11.dtd">
<!-- Generated by graphviz version 2.47.3 (20210619.1520)
 -->
<!-- Title: dependencies Pages: 1 -->
<svg width="4868pt" height="247pt"
 viewBox="0.00 0.00 4868.00 246.80" xmlns="http://www.w3.org/2000/svg" xmlns:xlink="http://www.w3.org/1999/xlink">
<g id="graph0" class="graph" transform="scale(1 1) rotate(0) translate(4 242.8)">
<title>dependencies</title>
<polygon fill="white" stroke="transparent" points="-4,4 -4,-242.8 4864,-242.8 4864,4 -4,4"/>
<text text-anchor="middle" x="2430" y="-8.2" font-family="sans-serif" font-size="14.00">dependencies</text>
<g id="clust1" class="cluster">
<title>cluster_AppModule</title>
<polygon fill="none" stroke="black" stroke-dasharray="1,5" points="8,-32.8 8,-157.8 933,-157.8 933,-32.8 8,-32.8"/>
</g>
<g id="clust2" class="cluster">
<title>cluster_AppModule_declarations</title>
<polygon fill="none" stroke="black" points="168,-40.8 168,-92.8 925,-92.8 925,-40.8 168,-40.8"/>
</g>
<g id="clust7" class="cluster">
<title>cluster_AppModule_imports</title>
<polygon fill="none" stroke="black" points="16,-40.8 16,-92.8 160,-92.8 160,-40.8 16,-40.8"/>
</g>
<g id="clust17" class="cluster">
<title>cluster_ComponentesModule</title>
<polygon fill="none" stroke="black" stroke-dasharray="1,5" points="941,-32.8 941,-230.8 2717,-230.8 2717,-32.8 941,-32.8"/>
</g>
<g id="clust30" class="cluster">
<title>cluster_ComponentesModule_exports</title>
<polygon fill="none" stroke="black" points="949,-170.8 949,-222.8 2709,-222.8 2709,-170.8 949,-170.8"/>
</g>
<g id="clust18" class="cluster">
<title>cluster_ComponentesModule_declarations</title>
<polygon fill="none" stroke="black" points="971,-40.8 971,-92.8 2695,-92.8 2695,-40.8 971,-40.8"/>
</g>
<g id="clust39" class="cluster">
<title>cluster_PaginasModule</title>
<polygon fill="none" stroke="black" stroke-dasharray="1,5" points="2725,-32.8 2725,-230.8 4852,-230.8 4852,-32.8 2725,-32.8"/>
</g>
<g id="clust52" class="cluster">
<title>cluster_PaginasModule_imports</title>
<polygon fill="none" stroke="black" points="4680,-40.8 4680,-92.8 4844,-92.8 4844,-40.8 4680,-40.8"/>
</g>
<g id="clust40" class="cluster">
<title>cluster_PaginasModule_declarations</title>
<polygon fill="none" stroke="black" points="2733,-40.8 2733,-92.8 4672,-92.8 4672,-40.8 2733,-40.8"/>
</g>
<g id="clust53" class="cluster">
<title>cluster_PaginasModule_exports</title>
<polygon fill="none" stroke="black" points="2849,-170.8 2849,-222.8 4709,-222.8 4709,-170.8 2849,-170.8"/>
</g>
<!-- ContrasenaEmailComponent -->
<g id="node1" class="node">
<title>ContrasenaEmailComponent</title>
<polygon fill="#ffffb3" stroke="black" points="916.75,-84.8 739.25,-84.8 739.25,-48.8 916.75,-48.8 916.75,-84.8"/>
<text text-anchor="middle" x="828" y="-62.6" font-family="Times,serif" font-size="14.00">ContrasenaEmailComponent</text>
</g>
<!-- AppModule -->
<g id="node5" class="node">
<title>AppModule</title>
<polygon fill="#8dd3c7" stroke="black" points="554.66,-149.8 551.66,-153.8 530.66,-153.8 527.66,-149.8 471.34,-149.8 471.34,-113.8 554.66,-113.8 554.66,-149.8"/>
<text text-anchor="middle" x="513" y="-127.6" font-family="Times,serif" font-size="14.00">AppModule</text>
</g>
<!-- ContrasenaEmailComponent&#45;&gt;AppModule -->
<g id="edge1" class="edge">
<title>ContrasenaEmailComponent&#45;&gt;AppModule</title>
<path fill="none" stroke="black" d="M828,-84.95C828,-108.56 828,-146.8 828,-146.8 828,-146.8 564.83,-146.8 564.83,-146.8"/>
<polygon fill="black" stroke="black" points="564.83,-143.3 554.83,-146.8 564.83,-150.3 564.83,-143.3"/>
</g>
<!-- LoginComponent -->
<g id="node2" class="node">
<title>LoginComponent</title>
<polygon fill="#ffffb3" stroke="black" points="721.28,-84.8 606.72,-84.8 606.72,-48.8 721.28,-48.8 721.28,-84.8"/>
<text text-anchor="middle" x="664" y="-62.6" font-family="Times,serif" font-size="14.00">LoginComponent</text>
</g>
<!-- LoginComponent&#45;&gt;AppModule -->
<g id="edge2" class="edge">
<title>LoginComponent&#45;&gt;AppModule</title>
<path fill="none" stroke="black" d="M664,-85.05C664,-107.82 664,-143.8 664,-143.8 664,-143.8 564.66,-143.8 564.66,-143.8"/>
<polygon fill="black" stroke="black" points="564.66,-140.3 554.66,-143.8 564.66,-147.3 564.66,-140.3"/>
</g>
<!-- PanelAdminComponent -->
<g id="node3" class="node">
<title>PanelAdminComponent</title>
<polygon fill="#ffffb3" stroke="black" points="588.82,-84.8 437.18,-84.8 437.18,-48.8 588.82,-48.8 588.82,-84.8"/>
<text text-anchor="middle" x="513" y="-62.6" font-family="Times,serif" font-size="14.00">PanelAdminComponent</text>
</g>
<!-- PanelAdminComponent&#45;&gt;AppModule -->
<g id="edge3" class="edge">
<title>PanelAdminComponent&#45;&gt;AppModule</title>
<path fill="none" stroke="black" d="M513,-84.91C513,-84.91 513,-103.79 513,-103.79"/>
<polygon fill="black" stroke="black" points="509.5,-103.79 513,-113.79 516.5,-103.79 509.5,-103.79"/>
</g>
<!-- RestablecerContrasenaEmailComponent -->
<g id="node4" class="node">
<title>RestablecerContrasenaEmailComponent</title>
<polygon fill="#ffffb3" stroke="black" points="419.54,-84.8 176.46,-84.8 176.46,-48.8 419.54,-48.8 419.54,-84.8"/>
<text text-anchor="middle" x="298" y="-62.6" font-family="Times,serif" font-size="14.00">RestablecerContrasenaEmailComponent</text>
</g>
<!-- RestablecerContrasenaEmailComponent&#45;&gt;AppModule -->
<g id="edge4" class="edge">
<title>RestablecerContrasenaEmailComponent&#45;&gt;AppModule</title>
<path fill="none" stroke="black" d="M298,-84.82C298,-102.17 298,-125.8 298,-125.8 298,-125.8 461.29,-125.8 461.29,-125.8"/>
<polygon fill="black" stroke="black" points="461.29,-129.3 471.29,-125.8 461.29,-122.3 461.29,-129.3"/>
</g>
<!-- AppRoutingModule -->
<g id="node6" class="node">
<title>AppRoutingModule</title>
<polygon fill="#8dd3c7" stroke="black" points="152.27,-84.8 149.27,-88.8 128.27,-88.8 125.27,-84.8 23.73,-84.8 23.73,-48.8 152.27,-48.8 152.27,-84.8"/>
<text text-anchor="middle" x="88" y="-62.6" font-family="Times,serif" font-size="14.00">AppRoutingModule</text>
</g>
<!-- AppRoutingModule&#45;&gt;AppModule -->
<g id="edge5" class="edge">
<title>AppRoutingModule&#45;&gt;AppModule</title>
<path fill="none" stroke="black" d="M88,-85.08C88,-106.12 88,-137.8 88,-137.8 88,-137.8 461.09,-137.8 461.09,-137.8"/>
<polygon fill="black" stroke="black" points="461.09,-141.3 471.09,-137.8 461.09,-134.3 461.09,-141.3"/>
</g>
<!-- ActualizarPersonalComponent -->
<g id="node7" class="node">
<title>ActualizarPersonalComponent</title>
<polygon fill="#ffffb3" stroke="black" points="2686.84,-84.8 2499.16,-84.8 2499.16,-48.8 2686.84,-48.8 2686.84,-84.8"/>
<text text-anchor="middle" x="2593" y="-62.6" font-family="Times,serif" font-size="14.00">ActualizarPersonalComponent</text>
</g>
<!-- ComponentesModule -->
<g id="node17" class="node">
<title>ComponentesModule</title>
<polygon fill="#8dd3c7" stroke="black" points="1749.04,-149.8 1746.04,-153.8 1725.04,-153.8 1722.04,-149.8 1612.96,-149.8 1612.96,-113.8 1749.04,-113.8 1749.04,-149.8"/>
<text text-anchor="middle" x="1681" y="-127.6" font-family="Times,serif" font-size="14.00">ComponentesModule</text>
</g>
<!-- ActualizarPersonalComponent&#45;&gt;ComponentesModule -->
<g id="edge6" class="edge">
<title>ActualizarPersonalComponent&#45;&gt;ComponentesModule</title>
<path fill="none" stroke="black" d="M2504.21,-84.84C2504.21,-106.46 2504.21,-139.8 2504.21,-139.8 2504.21,-139.8 1759.07,-139.8 1759.07,-139.8"/>
<polygon fill="black" stroke="black" points="1759.07,-136.3 1749.07,-139.8 1759.07,-143.3 1759.07,-136.3"/>
</g>
<!-- ActualizarRolComponent -->
<g id="node8" class="node">
<title>ActualizarRolComponent</title>
<polygon fill="#ffffb3" stroke="black" points="2480.86,-84.8 2321.14,-84.8 2321.14,-48.8 2480.86,-48.8 2480.86,-84.8"/>
<text text-anchor="middle" x="2401" y="-62.6" font-family="Times,serif" font-size="14.00">ActualizarRolComponent</text>
</g>
<!-- ActualizarRolComponent&#45;&gt;ComponentesModule -->
<g id="edge7" class="edge">
<title>ActualizarRolComponent&#45;&gt;ComponentesModule</title>
<path fill="none" stroke="black" d="M2324.7,-85.08C2324.7,-106.12 2324.7,-137.8 2324.7,-137.8 2324.7,-137.8 1759.28,-137.8 1759.28,-137.8"/>
<polygon fill="black" stroke="black" points="1759.28,-134.3 1749.28,-137.8 1759.28,-141.3 1759.28,-134.3"/>
</g>
<!-- ActualizarUsuarioComponent -->
<g id="node9" class="node">
<title>ActualizarUsuarioComponent</title>
<polygon fill="#ffffb3" stroke="black" points="2302.95,-84.8 2119.05,-84.8 2119.05,-48.8 2302.95,-48.8 2302.95,-84.8"/>
<text text-anchor="middle" x="2211" y="-62.6" font-family="Times,serif" font-size="14.00">ActualizarUsuarioComponent</text>
</g>
<!-- ActualizarUsuarioComponent&#45;&gt;ComponentesModule -->
<g id="edge8" class="edge">
<title>ActualizarUsuarioComponent&#45;&gt;ComponentesModule</title>
<path fill="none" stroke="black" d="M2243.07,-84.93C2243.07,-105.37 2243.07,-135.8 2243.07,-135.8 2243.07,-135.8 1759.08,-135.8 1759.08,-135.8"/>
<polygon fill="black" stroke="black" points="1759.08,-132.3 1749.08,-135.8 1759.08,-139.3 1759.08,-132.3"/>
</g>
<!-- BuscadorComponent -->
<g id="node10" class="node">
<title>BuscadorComponent</title>
<polygon fill="#ffffb3" stroke="black" points="2101.2,-84.8 1966.8,-84.8 1966.8,-48.8 2101.2,-48.8 2101.2,-84.8"/>
<text text-anchor="middle" x="2034" y="-62.6" font-family="Times,serif" font-size="14.00">BuscadorComponent</text>
</g>
<!-- BuscadorComponent&#45;&gt;ComponentesModule -->
<g id="edge9" class="edge">
<title>BuscadorComponent&#45;&gt;ComponentesModule</title>
<path fill="none" stroke="black" d="M2056.45,-85.11C2056.45,-104.95 2056.45,-133.8 2056.45,-133.8 2056.45,-133.8 1759.43,-133.8 1759.43,-133.8"/>
<polygon fill="black" stroke="black" points="1759.43,-130.3 1749.43,-133.8 1759.43,-137.3 1759.43,-130.3"/>
</g>
<!-- ErroresBackendComponent -->
<g id="node11" class="node">
<title>ErroresBackendComponent</title>
<polygon fill="#ffffb3" stroke="black" points="1948.51,-84.8 1777.49,-84.8 1777.49,-48.8 1948.51,-48.8 1948.51,-84.8"/>
<text text-anchor="middle" x="1863" y="-62.6" font-family="Times,serif" font-size="14.00">ErroresBackendComponent</text>
</g>
<!-- ErroresBackendComponent&#45;&gt;ComponentesModule -->
<g id="edge10" class="edge">
<title>ErroresBackendComponent&#45;&gt;ComponentesModule</title>
<path fill="none" stroke="black" d="M1834.42,-84.91C1834.42,-104.14 1834.42,-131.8 1834.42,-131.8 1834.42,-131.8 1759.18,-131.8 1759.18,-131.8"/>
<polygon fill="black" stroke="black" points="1759.18,-128.3 1749.18,-131.8 1759.18,-135.3 1759.18,-128.3"/>
</g>
<!-- ErroresFrontendComponent -->
<g id="node12" class="node">
<title>ErroresFrontendComponent</title>
<polygon fill="#ffffb3" stroke="black" points="1759.57,-84.8 1586.43,-84.8 1586.43,-48.8 1759.57,-48.8 1759.57,-84.8"/>
<text text-anchor="middle" x="1673" y="-62.6" font-family="Times,serif" font-size="14.00">ErroresFrontendComponent</text>
</g>
<!-- ErroresFrontendComponent&#45;&gt;ComponentesModule -->
<g id="edge11" class="edge">
<title>ErroresFrontendComponent&#45;&gt;ComponentesModule</title>
<path fill="none" stroke="black" d="M1681,-84.91C1681,-84.91 1681,-103.79 1681,-103.79"/>
<polygon fill="black" stroke="black" points="1677.5,-103.79 1681,-113.79 1684.5,-103.79 1677.5,-103.79"/>
</g>
<!-- ExitoComponent -->
<g id="node13" class="node">
<title>ExitoComponent</title>
<polygon fill="#ffffb3" stroke="black" points="1568.67,-84.8 1457.33,-84.8 1457.33,-48.8 1568.67,-48.8 1568.67,-84.8"/>
<text text-anchor="middle" x="1513" y="-62.6" font-family="Times,serif" font-size="14.00">ExitoComponent</text>
</g>
<!-- ExitoComponent&#45;&gt;ComponentesModule -->
<g id="edge12" class="edge">
<title>ExitoComponent&#45;&gt;ComponentesModule</title>
<path fill="none" stroke="black" d="M1565.21,-84.92C1565.21,-99.58 1565.21,-117.8 1565.21,-117.8 1565.21,-117.8 1602.64,-117.8 1602.64,-117.8"/>
<polygon fill="black" stroke="black" points="1602.64,-121.3 1612.64,-117.8 1602.64,-114.3 1602.64,-121.3"/>
</g>
<!-- ModalComponent -->
<g id="node14" class="node">
<title>ModalComponent</title>
<polygon fill="#ffffb3" stroke="black" points="1438.88,-84.8 1321.12,-84.8 1321.12,-48.8 1438.88,-48.8 1438.88,-84.8"/>
<text text-anchor="middle" x="1380" y="-62.6" font-family="Times,serif" font-size="14.00">ModalComponent</text>
</g>
<!-- ModalComponent&#45;&gt;ComponentesModule -->
<g id="edge13" class="edge">
<title>ModalComponent&#45;&gt;ComponentesModule</title>
<path fill="none" stroke="black" d="M1433.82,-85.08C1433.82,-100.75 1433.82,-120.8 1433.82,-120.8 1433.82,-120.8 1602.8,-120.8 1602.8,-120.8"/>
<polygon fill="black" stroke="black" points="1602.8,-124.3 1612.8,-120.8 1602.8,-117.3 1602.8,-124.3"/>
</g>
<!-- NoEncontradoComponent -->
<g id="node15" class="node">
<title>NoEncontradoComponent</title>
<polygon fill="#ffffb3" stroke="black" points="1303.47,-84.8 1140.53,-84.8 1140.53,-48.8 1303.47,-48.8 1303.47,-84.8"/>
<text text-anchor="middle" x="1222" y="-62.6" font-family="Times,serif" font-size="14.00">NoEncontradoComponent</text>
</g>
<!-- NoEncontradoComponent&#45;&gt;ComponentesModule -->
<g id="edge14" class="edge">
<title>NoEncontradoComponent&#45;&gt;ComponentesModule</title>
<path fill="none" stroke="black" d="M1296.36,-84.84C1296.36,-101.53 1296.36,-123.8 1296.36,-123.8 1296.36,-123.8 1602.68,-123.8 1602.68,-123.8"/>
<polygon fill="black" stroke="black" points="1602.68,-127.3 1612.68,-123.8 1602.68,-120.3 1602.68,-127.3"/>
</g>
<!-- PaginacionComponent -->
<g id="node16" class="node">
<title>PaginacionComponent</title>
<polygon fill="#ffffb3" stroke="black" points="1122.54,-84.8 979.46,-84.8 979.46,-48.8 1122.54,-48.8 1122.54,-84.8"/>
<text text-anchor="middle" x="1051" y="-62.6" font-family="Times,serif" font-size="14.00">PaginacionComponent</text>
</g>
<!-- PaginacionComponent&#45;&gt;ComponentesModule -->
<g id="edge15" class="edge">
<title>PaginacionComponent&#45;&gt;ComponentesModule</title>
<path fill="none" stroke="black" d="M1113.64,-85.1C1113.64,-103.07 1113.64,-127.8 1113.64,-127.8 1113.64,-127.8 1602.85,-127.8 1602.85,-127.8"/>
<polygon fill="black" stroke="black" points="1602.85,-131.3 1612.85,-127.8 1602.85,-124.3 1602.85,-131.3"/>
</g>
<!-- ActualizarPersonalComponent  -->
<g id="node18" class="node">
<title>ActualizarPersonalComponent </title>
<polygon fill="#fb8072" stroke="black" points="2700.84,-214.8 2509.16,-214.8 2509.16,-178.8 2700.84,-178.8 2700.84,-214.8"/>
<text text-anchor="middle" x="2605" y="-192.6" font-family="Times,serif" font-size="14.00">ActualizarPersonalComponent </text>
</g>
<!-- ComponentesModule&#45;&gt;ActualizarPersonalComponent  -->
<g id="edge16" class="edge">
<title>ComponentesModule&#45;&gt;ActualizarPersonalComponent </title>
<path fill="none" stroke="black" stroke-dasharray="5,2" d="M1749.18,-140.8C1961.73,-140.8 2598.12,-140.8 2598.12,-140.8 2598.12,-140.8 2598.12,-168.77 2598.12,-168.77"/>
<polygon fill="black" stroke="black" points="2594.63,-168.77 2598.12,-178.77 2601.63,-168.77 2594.63,-168.77"/>
</g>
<!-- ActualizarRolComponent  -->
<g id="node19" class="node">
<title>ActualizarRolComponent </title>
<polygon fill="#fb8072" stroke="black" points="2491.86,-214.8 2328.14,-214.8 2328.14,-178.8 2491.86,-178.8 2491.86,-214.8"/>
<text text-anchor="middle" x="2410" y="-192.6" font-family="Times,serif" font-size="14.00">ActualizarRolComponent </text>
</g>
<!-- ComponentesModule&#45;&gt;ActualizarRolComponent  -->
<g id="edge17" class="edge">
<title>ComponentesModule&#45;&gt;ActualizarRolComponent </title>
<path fill="none" stroke="black" stroke-dasharray="5,2" d="M1749.08,-142.8C1929.21,-142.8 2404.62,-142.8 2404.62,-142.8 2404.62,-142.8 2404.62,-168.52 2404.62,-168.52"/>
<polygon fill="black" stroke="black" points="2401.13,-168.52 2404.62,-178.52 2408.13,-168.52 2401.13,-168.52"/>
</g>
<!-- ActualizarUsuarioComponent  -->
<g id="node20" class="node">
<title>ActualizarUsuarioComponent </title>
<polygon fill="#fb8072" stroke="black" points="2310.95,-214.8 2123.05,-214.8 2123.05,-178.8 2310.95,-178.8 2310.95,-214.8"/>
<text text-anchor="middle" x="2217" y="-192.6" font-family="Times,serif" font-size="14.00">ActualizarUsuarioComponent </text>
</g>
<!-- ComponentesModule&#45;&gt;ActualizarUsuarioComponent  -->
<g id="edge18" class="edge">
<title>ComponentesModule&#45;&gt;ActualizarUsuarioComponent </title>
<path fill="none" stroke="black" stroke-dasharray="5,2" d="M1749.25,-144.8C1886.55,-144.8 2183.18,-144.8 2183.18,-144.8 2183.18,-144.8 2183.18,-168.61 2183.18,-168.61"/>
<polygon fill="black" stroke="black" points="2179.68,-168.61 2183.18,-178.61 2186.68,-168.61 2179.68,-168.61"/>
</g>
<!-- BuscadorComponent  -->
<g id="node21" class="node">
<title>BuscadorComponent </title>
<polygon fill="#fb8072" stroke="black" points="2104.7,-214.8 1967.3,-214.8 1967.3,-178.8 2104.7,-178.8 2104.7,-214.8"/>
<text text-anchor="middle" x="2036" y="-192.6" font-family="Times,serif" font-size="14.00">BuscadorComponent </text>
</g>
<!-- ComponentesModule&#45;&gt;BuscadorComponent  -->
<g id="edge19" class="edge">
<title>ComponentesModule&#45;&gt;BuscadorComponent </title>
<path fill="none" stroke="black" stroke-dasharray="5,2" d="M1749.14,-146.8C1845.98,-146.8 2011.8,-146.8 2011.8,-146.8 2011.8,-146.8 2011.8,-168.75 2011.8,-168.75"/>
<polygon fill="black" stroke="black" points="2008.3,-168.75 2011.8,-178.75 2015.3,-168.75 2008.3,-168.75"/>
</g>
<!-- ErroresBackendComponent  -->
<g id="node22" class="node">
<title>ErroresBackendComponent </title>
<polygon fill="#fb8072" stroke="black" points="1949.51,-214.8 1774.49,-214.8 1774.49,-178.8 1949.51,-178.8 1949.51,-214.8"/>
<text text-anchor="middle" x="1862" y="-192.6" font-family="Times,serif" font-size="14.00">ErroresBackendComponent </text>
</g>
<!-- ComponentesModule&#45;&gt;ErroresBackendComponent  -->
<g id="edge20" class="edge">
<title>ComponentesModule&#45;&gt;ErroresBackendComponent </title>
<path fill="none" stroke="black" stroke-dasharray="5,2" d="M1749.08,-148.8C1810.61,-148.8 1891.58,-148.8 1891.58,-148.8 1891.58,-148.8 1891.58,-168.65 1891.58,-168.65"/>
<polygon fill="black" stroke="black" points="1888.08,-168.65 1891.58,-178.65 1895.08,-168.65 1888.08,-168.65"/>
</g>
<!-- ErroresFrontendComponent  -->
<g id="node23" class="node">
<title>ErroresFrontendComponent </title>
<polygon fill="#fb8072" stroke="black" points="1756.07,-214.8 1579.93,-214.8 1579.93,-178.8 1756.07,-178.8 1756.07,-214.8"/>
<text text-anchor="middle" x="1668" y="-192.6" font-family="Times,serif" font-size="14.00">ErroresFrontendComponent </text>
</g>
<!-- ComponentesModule&#45;&gt;ErroresFrontendComponent  -->
<g id="edge21" class="edge">
<title>ComponentesModule&#45;&gt;ErroresFrontendComponent </title>
<path fill="none" stroke="black" stroke-dasharray="5,2" d="M1681,-149.91C1681,-149.91 1681,-168.79 1681,-168.79"/>
<polygon fill="black" stroke="black" points="1677.5,-168.79 1681,-178.79 1684.5,-168.79 1677.5,-168.79"/>
</g>
<!-- ExitoComponent  -->
<g id="node24" class="node">
<title>ExitoComponent </title>
<polygon fill="#fb8072" stroke="black" points="1561.67,-214.8 1446.33,-214.8 1446.33,-178.8 1561.67,-178.8 1561.67,-214.8"/>
<text text-anchor="middle" x="1504" y="-192.6" font-family="Times,serif" font-size="14.00">ExitoComponent </text>
</g>
<!-- ComponentesModule&#45;&gt;ExitoComponent  -->
<g id="edge22" class="edge">
<title>ComponentesModule&#45;&gt;ExitoComponent </title>
<path fill="none" stroke="black" stroke-dasharray="5,2" d="M1612.68,-140.8C1564.82,-140.8 1509.38,-140.8 1509.38,-140.8 1509.38,-140.8 1509.38,-168.77 1509.38,-168.77"/>
<polygon fill="black" stroke="black" points="1505.88,-168.77 1509.38,-178.77 1512.88,-168.77 1505.88,-168.77"/>
</g>
<!-- ModalComponent  -->
<g id="node25" class="node">
<title>ModalComponent </title>
<polygon fill="#fb8072" stroke="black" points="1428.88,-214.8 1307.12,-214.8 1307.12,-178.8 1428.88,-178.8 1428.88,-214.8"/>
<text text-anchor="middle" x="1368" y="-192.6" font-family="Times,serif" font-size="14.00">ModalComponent </text>
</g>
<!-- ComponentesModule&#45;&gt;ModalComponent  -->
<g id="edge23" class="edge">
<title>ComponentesModule&#45;&gt;ModalComponent </title>
<path fill="none" stroke="black" stroke-dasharray="5,2" d="M1612.68,-136.8C1522.46,-136.8 1374.88,-136.8 1374.88,-136.8 1374.88,-136.8 1374.88,-168.8 1374.88,-168.8"/>
<polygon fill="black" stroke="black" points="1371.38,-168.8 1374.88,-178.8 1378.38,-168.8 1371.38,-168.8"/>
</g>
<!-- NoEncontradoComponent  -->
<g id="node26" class="node">
<title>NoEncontradoComponent </title>
<polygon fill="#fb8072" stroke="black" points="1289.47,-214.8 1122.53,-214.8 1122.53,-178.8 1289.47,-178.8 1289.47,-214.8"/>
<text text-anchor="middle" x="1206" y="-192.6" font-family="Times,serif" font-size="14.00">NoEncontradoComponent </text>
</g>
<!-- ComponentesModule&#45;&gt;NoEncontradoComponent  -->
<g id="edge24" class="edge">
<title>ComponentesModule&#45;&gt;NoEncontradoComponent </title>
<path fill="none" stroke="black" stroke-dasharray="5,2" d="M1612.72,-133.8C1483.25,-133.8 1214.88,-133.8 1214.88,-133.8 1214.88,-133.8 1214.88,-168.58 1214.88,-168.58"/>
<polygon fill="black" stroke="black" points="1211.38,-168.58 1214.88,-178.58 1218.38,-168.58 1211.38,-168.58"/>
</g>
<!-- PaginacionComponent  -->
<g id="node27" class="node">
<title>PaginacionComponent </title>
<polygon fill="#fb8072" stroke="black" points="1104.54,-214.8 957.46,-214.8 957.46,-178.8 1104.54,-178.8 1104.54,-214.8"/>
<text text-anchor="middle" x="1031" y="-192.6" font-family="Times,serif" font-size="14.00">PaginacionComponent </text>
</g>
<!-- ComponentesModule&#45;&gt;PaginacionComponent  -->
<g id="edge25" class="edge">
<title>ComponentesModule&#45;&gt;PaginacionComponent </title>
<path fill="none" stroke="black" stroke-dasharray="5,2" d="M1612.91,-130.8C1448.22,-130.8 1041.88,-130.8 1041.88,-130.8 1041.88,-130.8 1041.88,-168.77 1041.88,-168.77"/>
<polygon fill="black" stroke="black" points="1038.38,-168.77 1041.88,-178.77 1045.38,-168.77 1038.38,-168.77"/>
</g>
<!-- BusquedaPipe -->
<g id="node28" class="node">
<title>BusquedaPipe</title>
<polygon fill="#ffffb3" stroke="black" points="4664.1,-84.8 4567.9,-84.8 4567.9,-48.8 4664.1,-48.8 4664.1,-84.8"/>
<text text-anchor="middle" x="4616" y="-62.6" font-family="Times,serif" font-size="14.00">BusquedaPipe</text>
</g>
<!-- PaginasModule -->
<g id="node39" class="node">
<title>PaginasModule</title>
<polygon fill="#8dd3c7" stroke="black" points="3793.6,-149.8 3790.6,-153.8 3769.6,-153.8 3766.6,-149.8 3690.4,-149.8 3690.4,-113.8 3793.6,-113.8 3793.6,-149.8"/>
<text text-anchor="middle" x="3742" y="-127.6" font-family="Times,serif" font-size="14.00">PaginasModule</text>
</g>
<!-- BusquedaPipe&#45;&gt;PaginasModule -->
<g id="edge26" class="edge">
<title>BusquedaPipe&#45;&gt;PaginasModule</title>
<path fill="none" stroke="black" d="M4616,-85.07C4616,-103.36 4616,-128.8 4616,-128.8 4616,-128.8 3803.73,-128.8 3803.73,-128.8"/>
<polygon fill="black" stroke="black" points="3803.73,-125.3 3793.73,-128.8 3803.73,-132.3 3803.73,-125.3"/>
</g>
<!-- CambioContrasenaComponent -->
<g id="node29" class="node">
<title>CambioContrasenaComponent</title>
<polygon fill="#ffffb3" stroke="black" points="4550.14,-84.8 4361.86,-84.8 4361.86,-48.8 4550.14,-48.8 4550.14,-84.8"/>
<text text-anchor="middle" x="4456" y="-62.6" font-family="Times,serif" font-size="14.00">CambioContrasenaComponent</text>
</g>
<!-- CambioContrasenaComponent&#45;&gt;PaginasModule -->
<g id="edge27" class="edge">
<title>CambioContrasenaComponent&#45;&gt;PaginasModule</title>
<path fill="none" stroke="black" d="M4426.23,-84.83C4426.23,-101.86 4426.23,-124.8 4426.23,-124.8 4426.23,-124.8 3803.71,-124.8 3803.71,-124.8"/>
<polygon fill="black" stroke="black" points="3803.71,-121.3 3793.71,-124.8 3803.71,-128.3 3803.71,-121.3"/>
</g>
<!-- EscannerQRComponent -->
<g id="node30" class="node">
<title>EscannerQRComponent</title>
<polygon fill="#ffffb3" stroke="black" points="4344.08,-84.8 4191.92,-84.8 4191.92,-48.8 4344.08,-48.8 4344.08,-84.8"/>
<text text-anchor="middle" x="4268" y="-62.6" font-family="Times,serif" font-size="14.00">EscannerQRComponent</text>
</g>
<!-- EscannerQRComponent&#45;&gt;PaginasModule -->
<g id="edge28" class="edge">
<title>EscannerQRComponent&#45;&gt;PaginasModule</title>
<path fill="none" stroke="black" d="M4254.82,-84.81C4254.82,-100.85 4254.82,-121.8 4254.82,-121.8 4254.82,-121.8 3803.99,-121.8 3803.99,-121.8"/>
<polygon fill="black" stroke="black" points="3803.99,-118.3 3793.99,-121.8 3803.99,-125.3 3803.99,-118.3"/>
</g>
<!-- PersonalEliminadoComponent -->
<g id="node31" class="node">
<title>PersonalEliminadoComponent</title>
<polygon fill="#ffffb3" stroke="black" points="4173.87,-84.8 3986.13,-84.8 3986.13,-48.8 4173.87,-48.8 4173.87,-84.8"/>
<text text-anchor="middle" x="4080" y="-62.6" font-family="Times,serif" font-size="14.00">PersonalEliminadoComponent</text>
</g>
<!-- PersonalEliminadoComponent&#45;&gt;PaginasModule -->
<g id="edge29" class="edge">
<title>PersonalEliminadoComponent&#45;&gt;PaginasModule</title>
<path fill="none" stroke="black" d="M4047.15,-84.92C4047.15,-99.58 4047.15,-117.8 4047.15,-117.8 4047.15,-117.8 3803.76,-117.8 3803.76,-117.8"/>
<polygon fill="black" stroke="black" points="3803.76,-114.3 3793.76,-117.8 3803.76,-121.3 3803.76,-114.3"/>
</g>
<!-- RegistroPersonalComponent -->
<g id="node32" class="node">
<title>RegistroPersonalComponent</title>
<polygon fill="#ffffb3" stroke="black" points="3968.48,-84.8 3791.52,-84.8 3791.52,-48.8 3968.48,-48.8 3968.48,-84.8"/>
<text text-anchor="middle" x="3880" y="-62.6" font-family="Times,serif" font-size="14.00">RegistroPersonalComponent</text>
</g>
<!-- RegistroPersonalComponent&#45;&gt;PaginasModule -->
<g id="edge30" class="edge">
<title>RegistroPersonalComponent&#45;&gt;PaginasModule</title>
<path fill="none" stroke="black" d="M3791.5,-66.8C3785.93,-66.8 3782.5,-66.8 3782.5,-66.8 3782.5,-66.8 3782.5,-103.69 3782.5,-103.69"/>
<polygon fill="black" stroke="black" points="3779,-103.69 3782.5,-113.69 3786,-103.69 3779,-103.69"/>
</g>
<!-- RegistroRolComponent -->
<g id="node33" class="node">
<title>RegistroRolComponent</title>
<polygon fill="#ffffb3" stroke="black" points="3773.5,-84.8 3624.5,-84.8 3624.5,-48.8 3773.5,-48.8 3773.5,-84.8"/>
<text text-anchor="middle" x="3699" y="-62.6" font-family="Times,serif" font-size="14.00">RegistroRolComponent</text>
</g>
<!-- RegistroRolComponent&#45;&gt;PaginasModule -->
<g id="edge31" class="edge">
<title>RegistroRolComponent&#45;&gt;PaginasModule</title>
<path fill="none" stroke="black" d="M3731.98,-84.91C3731.98,-84.91 3731.98,-103.79 3731.98,-103.79"/>
<polygon fill="black" stroke="black" points="3728.48,-103.79 3731.98,-113.79 3735.48,-103.79 3728.48,-103.79"/>
</g>
<!-- RegistroUsuarioComponent -->
<g id="node34" class="node">
<title>RegistroUsuarioComponent</title>
<polygon fill="#ffffb3" stroke="black" points="3606.59,-84.8 3433.41,-84.8 3433.41,-48.8 3606.59,-48.8 3606.59,-84.8"/>
<text text-anchor="middle" x="3520" y="-62.6" font-family="Times,serif" font-size="14.00">RegistroUsuarioComponent</text>
</g>
<!-- RegistroUsuarioComponent&#45;&gt;PaginasModule -->
<g id="edge32" class="edge">
<title>RegistroUsuarioComponent&#45;&gt;PaginasModule</title>
<path fill="none" stroke="black" d="M3584.62,-85.05C3584.62,-98.98 3584.62,-115.8 3584.62,-115.8 3584.62,-115.8 3680.03,-115.8 3680.03,-115.8"/>
<polygon fill="black" stroke="black" points="3680.03,-119.3 3690.03,-115.8 3680.03,-112.3 3680.03,-119.3"/>
</g>
<!-- UsuariosEliminadosComponent -->
<g id="node35" class="node">
<title>UsuariosEliminadosComponent</title>
<polygon fill="#ffffb3" stroke="black" points="3415.37,-84.8 3220.63,-84.8 3220.63,-48.8 3415.37,-48.8 3415.37,-84.8"/>
<text text-anchor="middle" x="3318" y="-62.6" font-family="Times,serif" font-size="14.00">UsuariosEliminadosComponent</text>
</g>
<!-- UsuariosEliminadosComponent&#45;&gt;PaginasModule -->
<g id="edge33" class="edge">
<title>UsuariosEliminadosComponent&#45;&gt;PaginasModule</title>
<path fill="none" stroke="black" d="M3381.12,-84.92C3381.12,-99.58 3381.12,-117.8 3381.12,-117.8 3381.12,-117.8 3680.3,-117.8 3680.3,-117.8"/>
<polygon fill="black" stroke="black" points="3680.3,-121.3 3690.3,-117.8 3680.3,-114.3 3680.3,-121.3"/>
</g>
<!-- VerPersonalComponent -->
<g id="node36" class="node">
<title>VerPersonalComponent</title>
<polygon fill="#ffffb3" stroke="black" points="3202.02,-84.8 3051.98,-84.8 3051.98,-48.8 3202.02,-48.8 3202.02,-84.8"/>
<text text-anchor="middle" x="3127" y="-62.6" font-family="Times,serif" font-size="14.00">VerPersonalComponent</text>
</g>
<!-- VerPersonalComponent&#45;&gt;PaginasModule -->
<g id="edge34" class="edge">
<title>VerPersonalComponent&#45;&gt;PaginasModule</title>
<path fill="none" stroke="black" d="M3188.62,-85.04C3188.62,-100.37 3188.62,-119.8 3188.62,-119.8 3188.62,-119.8 3680.44,-119.8 3680.44,-119.8"/>
<polygon fill="black" stroke="black" points="3680.44,-123.3 3690.44,-119.8 3680.44,-116.3 3680.44,-123.3"/>
</g>
<!-- VerRolComponent -->
<g id="node37" class="node">
<title>VerRolComponent</title>
<polygon fill="#ffffb3" stroke="black" points="3033.04,-84.8 2910.96,-84.8 2910.96,-48.8 3033.04,-48.8 3033.04,-84.8"/>
<text text-anchor="middle" x="2972" y="-62.6" font-family="Times,serif" font-size="14.00">VerRolComponent</text>
</g>
<!-- VerRolComponent&#45;&gt;PaginasModule -->
<g id="edge35" class="edge">
<title>VerRolComponent&#45;&gt;PaginasModule</title>
<path fill="none" stroke="black" d="M3021.88,-84.81C3021.88,-100.85 3021.88,-121.8 3021.88,-121.8 3021.88,-121.8 3680.21,-121.8 3680.21,-121.8"/>
<polygon fill="black" stroke="black" points="3680.21,-125.3 3690.21,-121.8 3680.21,-118.3 3680.21,-125.3"/>
</g>
<!-- VerUsuariosComponent -->
<g id="node38" class="node">
<title>VerUsuariosComponent</title>
<polygon fill="#ffffb3" stroke="black" points="2893.08,-84.8 2740.92,-84.8 2740.92,-48.8 2893.08,-48.8 2893.08,-84.8"/>
<text text-anchor="middle" x="2817" y="-62.6" font-family="Times,serif" font-size="14.00">VerUsuariosComponent</text>
</g>
<!-- VerUsuariosComponent&#45;&gt;PaginasModule -->
<g id="edge36" class="edge">
<title>VerUsuariosComponent&#45;&gt;PaginasModule</title>
<path fill="none" stroke="black" d="M2875.12,-84.83C2875.12,-101.2 2875.12,-122.8 2875.12,-122.8 2875.12,-122.8 3680.37,-122.8 3680.37,-122.8"/>
<polygon fill="black" stroke="black" points="3680.37,-126.3 3690.37,-122.8 3680.37,-119.3 3680.37,-126.3"/>
</g>
<!-- CambioContrasenaComponent  -->
<g id="node41" class="node">
<title>CambioContrasenaComponent </title>
<polygon fill="#fb8072" stroke="black" points="4701.14,-214.8 4508.86,-214.8 4508.86,-178.8 4701.14,-178.8 4701.14,-214.8"/>
<text text-anchor="middle" x="4605" y="-192.6" font-family="Times,serif" font-size="14.00">CambioContrasenaComponent </text>
</g>
<!-- PaginasModule&#45;&gt;CambioContrasenaComponent  -->
<g id="edge38" class="edge">
<title>PaginasModule&#45;&gt;CambioContrasenaComponent </title>
<path fill="none" stroke="black" stroke-dasharray="5,2" d="M3793.68,-135.8C3968.9,-135.8 4529.62,-135.8 4529.62,-135.8 4529.62,-135.8 4529.62,-168.5 4529.62,-168.5"/>
<polygon fill="black" stroke="black" points="4526.13,-168.5 4529.62,-178.5 4533.13,-168.5 4526.13,-168.5"/>
</g>
<!-- EscannerQRComponent  -->
<g id="node42" class="node">
<title>EscannerQRComponent </title>
<polygon fill="#fb8072" stroke="black" points="4490.58,-214.8 4335.42,-214.8 4335.42,-178.8 4490.58,-178.8 4490.58,-214.8"/>
<text text-anchor="middle" x="4413" y="-192.6" font-family="Times,serif" font-size="14.00">EscannerQRComponent </text>
</g>
<!-- PaginasModule&#45;&gt;EscannerQRComponent  -->
<g id="edge39" class="edge">
<title>PaginasModule&#45;&gt;EscannerQRComponent </title>
<path fill="none" stroke="black" stroke-dasharray="5,2" d="M3793.73,-139.8C3938.91,-139.8 4339.62,-139.8 4339.62,-139.8 4339.62,-139.8 4339.62,-168.76 4339.62,-168.76"/>
<polygon fill="black" stroke="black" points="4336.13,-168.76 4339.62,-178.76 4343.13,-168.76 4336.13,-168.76"/>
</g>
<!-- PersonalEliminadoComponent  -->
<g id="node43" class="node">
<title>PersonalEliminadoComponent </title>
<polygon fill="#fb8072" stroke="black" points="4317.87,-214.8 4126.13,-214.8 4126.13,-178.8 4317.87,-178.8 4317.87,-214.8"/>
<text text-anchor="middle" x="4222" y="-192.6" font-family="Times,serif" font-size="14.00">PersonalEliminadoComponent </text>
</g>
<!-- PaginasModule&#45;&gt;PersonalEliminadoComponent  -->
<g id="edge40" class="edge">
<title>PaginasModule&#45;&gt;PersonalEliminadoComponent </title>
<path fill="none" stroke="black" stroke-dasharray="5,2" d="M3793.69,-142.8C3903.51,-142.8 4150.12,-142.8 4150.12,-142.8 4150.12,-142.8 4150.12,-168.52 4150.12,-168.52"/>
<polygon fill="black" stroke="black" points="4146.63,-168.52 4150.12,-178.52 4153.63,-168.52 4146.63,-168.52"/>
</g>
<!-- RegistroPersonalComponent  -->
<g id="node44" class="node">
<title>RegistroPersonalComponent </title>
<polygon fill="#fb8072" stroke="black" points="4108.48,-214.8 3927.52,-214.8 3927.52,-178.8 4108.48,-178.8 4108.48,-214.8"/>
<text text-anchor="middle" x="4018" y="-192.6" font-family="Times,serif" font-size="14.00">RegistroPersonalComponent </text>
</g>
<!-- PaginasModule&#45;&gt;RegistroPersonalComponent  -->
<g id="edge41" class="edge">
<title>PaginasModule&#45;&gt;RegistroPersonalComponent </title>
<path fill="none" stroke="black" stroke-dasharray="5,2" d="M3793.75,-146.8C3854.81,-146.8 3948.12,-146.8 3948.12,-146.8 3948.12,-146.8 3948.12,-168.75 3948.12,-168.75"/>
<polygon fill="black" stroke="black" points="3944.63,-168.75 3948.12,-178.75 3951.63,-168.75 3944.63,-168.75"/>
</g>
<!-- RegistroRolComponent  -->
<g id="node45" class="node">
<title>RegistroRolComponent </title>
<polygon fill="#fb8072" stroke="black" points="3910.5,-214.8 3757.5,-214.8 3757.5,-178.8 3910.5,-178.8 3910.5,-214.8"/>
<text text-anchor="middle" x="3834" y="-192.6" font-family="Times,serif" font-size="14.00">RegistroRolComponent </text>
</g>
<!-- PaginasModule&#45;&gt;RegistroRolComponent  -->
<g id="edge42" class="edge">
<title>PaginasModule&#45;&gt;RegistroRolComponent </title>
<path fill="none" stroke="black" stroke-dasharray="5,2" d="M3775.65,-149.91C3775.65,-149.91 3775.65,-168.79 3775.65,-168.79"/>
<polygon fill="black" stroke="black" points="3772.15,-168.79 3775.65,-178.79 3779.15,-168.79 3772.15,-168.79"/>
</g>
<!-- RegistroUsuarioComponent  -->
<g id="node46" class="node">
<title>RegistroUsuarioComponent </title>
<polygon fill="#fb8072" stroke="black" points="3739.09,-214.8 3562.91,-214.8 3562.91,-178.8 3739.09,-178.8 3739.09,-214.8"/>
<text text-anchor="middle" x="3651" y="-192.6" font-family="Times,serif" font-size="14.00">RegistroUsuarioComponent </text>
</g>
<!-- PaginasModule&#45;&gt;RegistroUsuarioComponent  -->
<g id="edge43" class="edge">
<title>PaginasModule&#45;&gt;RegistroUsuarioComponent </title>
<path fill="none" stroke="black" stroke-dasharray="5,2" d="M3714.87,-149.91C3714.87,-149.91 3714.87,-168.79 3714.87,-168.79"/>
<polygon fill="black" stroke="black" points="3711.37,-168.79 3714.87,-178.79 3718.37,-168.79 3711.37,-168.79"/>
</g>
<!-- UsuariosEliminadosComponent  -->
<g id="node47" class="node">
<title>UsuariosEliminadosComponent </title>
<polygon fill="#fb8072" stroke="black" points="3545.37,-214.8 3346.63,-214.8 3346.63,-178.8 3545.37,-178.8 3545.37,-214.8"/>
<text text-anchor="middle" x="3446" y="-192.6" font-family="Times,serif" font-size="14.00">UsuariosEliminadosComponent </text>
</g>
<!-- PaginasModule&#45;&gt;UsuariosEliminadosComponent  -->
<g id="edge44" class="edge">
<title>PaginasModule&#45;&gt;UsuariosEliminadosComponent </title>
<path fill="none" stroke="black" stroke-dasharray="5,2" d="M3690.26,-130.8C3616.33,-130.8 3489.32,-130.8 3489.32,-130.8 3489.32,-130.8 3489.32,-168.77 3489.32,-168.77"/>
<polygon fill="black" stroke="black" points="3485.82,-168.77 3489.32,-178.77 3492.82,-168.77 3485.82,-168.77"/>
</g>
<!-- VerPersonalComponent  -->
<g id="node48" class="node">
<title>VerPersonalComponent </title>
<polygon fill="#fb8072" stroke="black" points="3329.02,-214.8 3174.98,-214.8 3174.98,-178.8 3329.02,-178.8 3329.02,-214.8"/>
<text text-anchor="middle" x="3252" y="-192.6" font-family="Times,serif" font-size="14.00">VerPersonalComponent </text>
</g>
<!-- PaginasModule&#45;&gt;VerPersonalComponent  -->
<g id="edge45" class="edge">
<title>PaginasModule&#45;&gt;VerPersonalComponent </title>
<path fill="none" stroke="black" stroke-dasharray="5,2" d="M3690.22,-128.8C3568.57,-128.8 3274.79,-128.8 3274.79,-128.8 3274.79,-128.8 3274.79,-168.58 3274.79,-168.58"/>
<polygon fill="black" stroke="black" points="3271.29,-168.58 3274.79,-178.58 3278.29,-168.58 3271.29,-168.58"/>
</g>
<!-- VerRolComponent  -->
<g id="node49" class="node">
<title>VerRolComponent </title>
<polygon fill="#fb8072" stroke="black" points="3157.04,-214.8 3030.96,-214.8 3030.96,-178.8 3157.04,-178.8 3157.04,-214.8"/>
<text text-anchor="middle" x="3094" y="-192.6" font-family="Times,serif" font-size="14.00">VerRolComponent </text>
</g>
<!-- PaginasModule&#45;&gt;VerRolComponent  -->
<g id="edge46" class="edge">
<title>PaginasModule&#45;&gt;VerRolComponent </title>
<path fill="none" stroke="black" stroke-dasharray="5,2" d="M3690.36,-126.8C3538.57,-126.8 3104.38,-126.8 3104.38,-126.8 3104.38,-126.8 3104.38,-168.77 3104.38,-168.77"/>
<polygon fill="black" stroke="black" points="3100.88,-168.77 3104.38,-178.77 3107.88,-168.77 3100.88,-168.77"/>
</g>
<!-- VerUsuariosComponent  -->
<g id="node50" class="node">
<title>VerUsuariosComponent </title>
<polygon fill="#fb8072" stroke="black" points="3012.58,-214.8 2857.42,-214.8 2857.42,-178.8 3012.58,-178.8 3012.58,-214.8"/>
<text text-anchor="middle" x="2935" y="-192.6" font-family="Times,serif" font-size="14.00">VerUsuariosComponent </text>
</g>
<!-- PaginasModule&#45;&gt;VerUsuariosComponent  -->
<g id="edge47" class="edge">
<title>PaginasModule&#45;&gt;VerUsuariosComponent </title>
<path fill="none" stroke="black" stroke-dasharray="5,2" d="M3690.2,-124.8C3515.94,-124.8 2961.76,-124.8 2961.76,-124.8 2961.76,-124.8 2961.76,-168.63 2961.76,-168.63"/>
<polygon fill="black" stroke="black" points="2958.26,-168.63 2961.76,-178.63 2965.26,-168.63 2958.26,-168.63"/>
</g>
<!-- PaginasRoutingModule -->
<g id="node40" class="node">
<title>PaginasRoutingModule</title>
<polygon fill="#8dd3c7" stroke="black" points="4836.21,-84.8 4833.21,-88.8 4812.21,-88.8 4809.21,-84.8 4687.79,-84.8 4687.79,-48.8 4836.21,-48.8 4836.21,-84.8"/>
<text text-anchor="middle" x="4762" y="-62.6" font-family="Times,serif" font-size="14.00">PaginasRoutingModule</text>
</g>
<!-- PaginasRoutingModule&#45;&gt;PaginasModule -->
<g id="edge37" class="edge">
<title>PaginasRoutingModule&#45;&gt;PaginasModule</title>
<path fill="none" stroke="black" d="M4694.48,-84.91C4694.48,-104.14 4694.48,-131.8 4694.48,-131.8 4694.48,-131.8 3803.89,-131.8 3803.89,-131.8"/>
<polygon fill="black" stroke="black" points="3803.89,-128.3 3793.89,-131.8 3803.89,-135.3 3803.89,-128.3"/>
</g>
</g>
</svg>
